M48
;GenerationSoftware,Autodesk,EAGLE,9.1.2*%
;CreationDate,2019-02-28T11:01:59Z*%
FMAT,2
ICI,OFF
METRIC,TZ,000.000
T4C0.350
T3C0.800
T2C0.813
T1C1.000
%
G90
M71
T1
X49530Y54610
X49530Y57150
X49530Y59690
X49530Y62230
X49530Y64770
X49530Y67310
X2540Y33020
X2540Y35560
X2540Y38100
X2540Y40640
X2540Y43180
X2540Y48260
X2540Y50800
X2540Y45720
T2
X20320Y60960
X5080Y64770
X20320Y64770
X5080Y68580
X20320Y68580
X20320Y72390
X5080Y76200
X20320Y76200
X5080Y72390
X5080Y60960
X20320Y57150
X5080Y57150
T3
X19050Y45720
X19050Y48260
X19050Y50800
X19050Y53340
X11430Y53340
X11430Y50800
X19050Y40640
X11430Y45720
X11430Y43180
X11430Y40640
X11430Y38100
X11430Y35560
X11430Y48260
X19050Y35560
X19050Y38100
X19050Y43180
T4
X39370Y71120
X36830Y54737
X36830Y72390
X36830Y59690
X34290Y73660
X36830Y64770
X31750Y74930
X36830Y68580
X29210Y76200
X7620Y38100
X29210Y39370
X29210Y54610
X29210Y64770
X7620Y52070
X29210Y59690
X29210Y49530
X29210Y44450
X21590Y50800
X7620Y33020
X41910Y69850
X36830Y44450
X36830Y49530
M30