G04 EAGLE Gerber X2 export*
%TF.Part,Single*%
%TF.FileFunction,Other,Top Layer*%
%TF.FilePolarity,Positive*%
%TF.GenerationSoftware,Autodesk,EAGLE,9.1.2*%
%TF.CreationDate,2019-02-28T11:01:59Z*%
G75*
%MOMM*%
%FSLAX34Y34*%
%LPD*%
%AMOC8*
5,1,8,0,0,1.08239X$1,22.5*%
G01*
%ADD10C,0.000000*%
%ADD11R,1.308000X1.308000*%
%ADD12C,1.308000*%
%ADD13C,1.508000*%
%ADD14R,1.000000X0.700000*%
%ADD15P,1.429621X8X202.500000*%
%ADD16C,0.381000*%
%ADD17C,0.406400*%
%ADD18C,0.756400*%


D10*
X-13970Y312420D02*
X528830Y312420D01*
X528830Y786030D01*
X-13970Y786030D01*
X-13970Y312420D01*
D11*
X190500Y355600D03*
D12*
X190500Y381000D03*
X190500Y406400D03*
X190500Y431800D03*
X190500Y457200D03*
X190500Y482600D03*
X190500Y508000D03*
X190500Y533400D03*
X114300Y533400D03*
X114300Y508000D03*
X114300Y482600D03*
X114300Y457200D03*
X114300Y431800D03*
X114300Y406400D03*
X114300Y381000D03*
X114300Y355600D03*
D13*
X32940Y508000D02*
X17860Y508000D01*
X17860Y482600D02*
X32940Y482600D01*
X32940Y457200D02*
X17860Y457200D01*
X17860Y431800D02*
X32940Y431800D01*
X32940Y406400D02*
X17860Y406400D01*
X17860Y381000D02*
X32940Y381000D01*
X32940Y355600D02*
X17860Y355600D01*
X17860Y330200D02*
X32940Y330200D01*
X487760Y673100D02*
X502840Y673100D01*
X502840Y647700D02*
X487760Y647700D01*
X487760Y622300D02*
X502840Y622300D01*
X502840Y596900D02*
X487760Y596900D01*
X487760Y571500D02*
X502840Y571500D01*
X502840Y546100D02*
X487760Y546100D01*
D14*
X318200Y682600D03*
X318200Y663600D03*
X342200Y673100D03*
X318200Y631800D03*
X318200Y612800D03*
X342200Y622300D03*
X318200Y581000D03*
X318200Y562000D03*
X342200Y571500D03*
X318200Y530200D03*
X318200Y511200D03*
X342200Y520700D03*
X318200Y479400D03*
X318200Y460400D03*
X342200Y469900D03*
X318200Y428600D03*
X318200Y409600D03*
X342200Y419100D03*
D15*
X203200Y762000D03*
X50800Y762000D03*
X203200Y723900D03*
X50800Y723900D03*
X203200Y685800D03*
X50800Y685800D03*
X203200Y647700D03*
X50800Y647700D03*
X203200Y609600D03*
X50800Y609600D03*
X203200Y571500D03*
X50800Y571500D03*
D16*
X273304Y459904D02*
X273304Y393700D01*
X273304Y459904D02*
X292800Y479400D01*
X318200Y479400D01*
X273304Y393700D02*
X260604Y381000D01*
X190500Y381000D01*
X281940Y368300D02*
X281940Y414630D01*
X295910Y428600D01*
X318200Y428600D01*
X281940Y368300D02*
X269240Y355600D01*
X190500Y355600D01*
X264160Y419100D02*
X264160Y504800D01*
X289560Y530200D01*
X318200Y530200D01*
X264160Y419100D02*
X251460Y406400D01*
X190500Y406400D01*
D17*
X236446Y495300D02*
X236446Y558800D01*
X236446Y589609D01*
D16*
X236446Y495300D02*
X223746Y482600D01*
X190500Y482600D01*
X236446Y589609D02*
X266700Y619863D01*
X266700Y673100D02*
X276200Y682600D01*
X318200Y682600D01*
X266700Y673100D02*
X266700Y619863D01*
X245717Y584717D02*
X245717Y469900D01*
X245717Y584717D02*
X292800Y631800D01*
X318200Y631800D01*
X245717Y469900D02*
X233017Y457200D01*
X190500Y457200D01*
X254607Y444500D02*
X254607Y542900D01*
X292707Y581000D01*
X318200Y581000D01*
X254607Y444500D02*
X241907Y431800D01*
X190500Y431800D01*
X63500Y330200D02*
X25400Y330200D01*
D17*
X63500Y330200D02*
X76200Y330200D01*
D18*
X76200Y330200D03*
X215900Y508000D03*
D17*
X203200Y533400D02*
X190500Y533400D01*
X203200Y533400D02*
X215900Y520700D01*
X215900Y508000D01*
D16*
X114300Y508000D02*
X25400Y508000D01*
X25400Y482600D02*
X114300Y482600D01*
X114300Y457200D02*
X25400Y457200D01*
X25400Y431800D02*
X114300Y431800D01*
X114300Y406400D02*
X25400Y406400D01*
X25400Y355600D02*
X81357Y355600D01*
X97676Y339281D01*
X288481Y339281D01*
X308000Y612800D02*
X318200Y612800D01*
X318200Y562000D02*
X308000Y562000D01*
X308000Y511200D02*
X318200Y511200D01*
X318200Y460400D02*
X308000Y460400D01*
X305500Y409600D02*
X292100Y396200D01*
X292100Y393700D01*
X292100Y342900D01*
X305500Y409600D02*
X318200Y409600D01*
X318200Y663600D02*
X308000Y663600D01*
X292100Y647700D01*
X308000Y612800D02*
X292100Y596900D01*
X308000Y562000D02*
X292100Y546100D01*
X308000Y511200D02*
X292100Y495300D01*
X308000Y460400D02*
X292100Y444500D01*
D18*
X292100Y444500D03*
X292100Y495300D03*
X292100Y596900D03*
X292100Y647700D03*
X292100Y546100D03*
X292100Y393700D03*
D16*
X292100Y342900D02*
X288481Y339281D01*
D18*
X76200Y520700D03*
D16*
X76200Y381000D02*
X25400Y381000D01*
D18*
X76200Y381000D03*
D17*
X101600Y355600D01*
X114300Y355600D01*
X76200Y520700D02*
X63500Y533400D01*
X38100Y533400D02*
X25400Y546100D01*
X38100Y533400D02*
X63500Y533400D01*
X25400Y749300D02*
X38100Y762000D01*
X25400Y558800D02*
X25400Y546100D01*
X25400Y558800D02*
X25400Y596900D01*
X25400Y635000D01*
X25400Y673100D01*
X25400Y711200D01*
X25400Y749300D01*
X38100Y723900D02*
X25400Y711200D01*
X38100Y685800D02*
X25400Y673100D01*
X38100Y647700D02*
X25400Y635000D01*
X38100Y609600D02*
X25400Y596900D01*
X38100Y571500D02*
X25400Y558800D01*
X38100Y609600D02*
X50800Y609600D01*
X50800Y762000D02*
X38100Y762000D01*
X38100Y685800D02*
X50800Y685800D01*
X50800Y571500D02*
X38100Y571500D01*
X38100Y647700D02*
X50800Y647700D01*
X50800Y723900D02*
X38100Y723900D01*
D18*
X292100Y762000D03*
X368300Y685800D03*
D16*
X355600Y673100D02*
X342200Y673100D01*
X355600Y673100D02*
X381000Y673100D01*
X431800Y673100D01*
D17*
X495300Y673100D01*
D16*
X381000Y673100D02*
X368300Y685800D01*
D17*
X292100Y762000D02*
X203200Y762000D01*
D18*
X317500Y749300D03*
X368300Y647700D03*
D16*
X368300Y622300D02*
X342200Y622300D01*
X368300Y622300D02*
X381000Y622300D01*
D17*
X452120Y647700D02*
X495300Y647700D01*
X426720Y622300D02*
X381000Y622300D01*
X426720Y622300D02*
X452120Y647700D01*
D16*
X368300Y622300D02*
X330200Y622300D01*
D17*
X368300Y635000D02*
X368300Y647700D01*
X368300Y635000D02*
X381000Y622300D01*
X317500Y749300D02*
X279400Y749300D01*
X254000Y723900D01*
X203200Y723900D01*
D18*
X342900Y736600D03*
X368300Y596900D03*
D17*
X457200Y622300D02*
X495300Y622300D01*
D16*
X406400Y571500D02*
X381000Y571500D01*
X342200Y571500D01*
D17*
X406400Y571500D02*
X457200Y622300D01*
X368300Y596900D02*
X368300Y584200D01*
X381000Y571500D01*
X342900Y736600D02*
X279400Y736600D01*
X228600Y685800D01*
X203200Y685800D01*
D18*
X368300Y723900D03*
X368300Y547370D03*
D17*
X455647Y596900D02*
X495300Y596900D01*
D16*
X342900Y520700D02*
X342200Y520700D01*
X292100Y723900D02*
X279400Y723900D01*
X292100Y723900D02*
X368300Y723900D01*
D17*
X455647Y596900D02*
X424180Y565433D01*
X424180Y525780D02*
X419100Y520700D01*
X424180Y525780D02*
X424180Y565433D01*
X419100Y520700D02*
X381000Y520700D01*
X342900Y520700D01*
X368300Y533400D02*
X368300Y547370D01*
X368300Y533400D02*
X381000Y520700D01*
X236220Y680720D02*
X279400Y723900D01*
X236220Y655320D02*
X228600Y647700D01*
X203200Y647700D01*
X236220Y655320D02*
X236220Y680720D01*
D18*
X393700Y711200D03*
X368300Y495300D03*
D17*
X457200Y571500D02*
X495300Y571500D01*
X457200Y571500D02*
X434340Y548640D01*
X419100Y469900D02*
X381000Y469900D01*
X342200Y469900D01*
D16*
X246380Y678180D02*
X279400Y711200D01*
X393700Y711200D01*
D17*
X434340Y548640D02*
X434340Y485140D01*
X419100Y469900D01*
X368300Y482600D02*
X368300Y495300D01*
X368300Y482600D02*
X381000Y469900D01*
X227330Y609600D02*
X203200Y609600D01*
X227330Y609600D02*
X246380Y628650D01*
X246380Y678180D01*
D18*
X419100Y698500D03*
X368300Y444500D03*
D17*
X444500Y431800D02*
X444500Y533400D01*
X457200Y546100D01*
X495300Y546100D01*
X444500Y431800D02*
X431800Y419100D01*
D16*
X342900Y419100D02*
X342200Y419100D01*
D17*
X419100Y419100D02*
X431800Y419100D01*
X419100Y419100D02*
X381000Y419100D01*
X342900Y419100D01*
D16*
X330200Y698500D02*
X320751Y698500D01*
X330200Y698500D02*
X419100Y698500D01*
X279400Y698500D02*
X256540Y675640D01*
X279400Y698500D02*
X330200Y698500D01*
D17*
X368300Y444500D02*
X368300Y431800D01*
X381000Y419100D01*
X215900Y571500D02*
X203200Y571500D01*
X227048Y595348D02*
X256540Y624840D01*
X227048Y595348D02*
X227048Y582648D01*
X215900Y571500D01*
X256540Y624840D02*
X256540Y675640D01*
M02*
