G04 EAGLE Gerber X2 export*
%TF.Part,Single*%
%TF.FileFunction,Other,Silk top*%
%TF.FilePolarity,Positive*%
%TF.GenerationSoftware,Autodesk,EAGLE,9.1.2*%
%TF.CreationDate,2019-02-28T11:01:59Z*%
G75*
%MOMM*%
%FSLAX34Y34*%
%LPD*%
%AMOC8*
5,1,8,0,0,1.08239X$1,22.5*%
G01*
%ADD10C,0.000000*%
%ADD11C,0.200000*%
%ADD12C,0.101600*%
%ADD13C,0.254000*%
%ADD14C,0.152400*%
%ADD15C,0.609600*%
%ADD16C,0.127000*%
%ADD17R,0.863600X0.609600*%


D10*
X-13970Y312420D02*
X528830Y312420D01*
X528830Y786030D01*
X-13970Y786030D01*
X-13970Y312420D01*
D11*
X119400Y347250D02*
X196500Y347250D01*
X185400Y541750D02*
X119400Y541750D01*
D12*
X159258Y434192D02*
X170942Y434192D01*
X170942Y432894D02*
X170942Y435490D01*
X159258Y435490D02*
X159258Y432894D01*
X170942Y442654D02*
X170942Y445250D01*
X170942Y442654D02*
X170940Y442555D01*
X170934Y442455D01*
X170925Y442356D01*
X170912Y442258D01*
X170895Y442160D01*
X170874Y442062D01*
X170849Y441966D01*
X170821Y441871D01*
X170789Y441777D01*
X170754Y441684D01*
X170715Y441592D01*
X170672Y441502D01*
X170627Y441414D01*
X170577Y441327D01*
X170525Y441243D01*
X170469Y441160D01*
X170411Y441080D01*
X170349Y441002D01*
X170284Y440927D01*
X170216Y440854D01*
X170146Y440784D01*
X170073Y440716D01*
X169998Y440651D01*
X169920Y440589D01*
X169840Y440531D01*
X169757Y440475D01*
X169673Y440423D01*
X169586Y440373D01*
X169498Y440328D01*
X169408Y440285D01*
X169316Y440246D01*
X169223Y440211D01*
X169129Y440179D01*
X169034Y440151D01*
X168938Y440126D01*
X168840Y440105D01*
X168742Y440088D01*
X168644Y440075D01*
X168545Y440066D01*
X168445Y440060D01*
X168346Y440058D01*
X168346Y440057D02*
X161854Y440057D01*
X161755Y440059D01*
X161655Y440065D01*
X161556Y440074D01*
X161458Y440087D01*
X161360Y440105D01*
X161262Y440125D01*
X161166Y440150D01*
X161070Y440178D01*
X160976Y440210D01*
X160883Y440245D01*
X160792Y440284D01*
X160702Y440327D01*
X160613Y440372D01*
X160527Y440422D01*
X160442Y440474D01*
X160360Y440530D01*
X160280Y440589D01*
X160202Y440650D01*
X160126Y440715D01*
X160053Y440783D01*
X159983Y440853D01*
X159915Y440926D01*
X159850Y441002D01*
X159789Y441080D01*
X159730Y441160D01*
X159674Y441242D01*
X159622Y441327D01*
X159573Y441413D01*
X159527Y441502D01*
X159484Y441592D01*
X159445Y441683D01*
X159410Y441776D01*
X159378Y441870D01*
X159350Y441966D01*
X159325Y442062D01*
X159305Y442160D01*
X159287Y442258D01*
X159274Y442356D01*
X159265Y442455D01*
X159259Y442554D01*
X159257Y442654D01*
X159258Y442654D02*
X159258Y445250D01*
X161854Y449615D02*
X159258Y452861D01*
X170942Y452861D01*
X170942Y456106D02*
X170942Y449615D01*
D13*
X57150Y520700D02*
X57150Y317500D01*
X38100Y317500D01*
X-6350Y317500D01*
X-6350Y520700D01*
X38100Y520700D01*
X57150Y520700D01*
X38100Y520700D02*
X38100Y317500D01*
D12*
X64008Y510032D02*
X73152Y510032D01*
X73152Y509016D02*
X73152Y511048D01*
X64008Y511048D02*
X64008Y509016D01*
X64008Y515112D02*
X73152Y515112D01*
X73152Y520192D02*
X64008Y515112D01*
X64008Y520192D02*
X73152Y520192D01*
D13*
X527050Y533400D02*
X527050Y685800D01*
X527050Y533400D02*
X508000Y533400D01*
X463550Y533400D01*
X463550Y685800D01*
X508000Y685800D01*
X527050Y685800D01*
X508000Y685800D02*
X508000Y533400D01*
D12*
X536448Y661924D02*
X540512Y661924D01*
X536448Y661924D02*
X536348Y661926D01*
X536249Y661932D01*
X536149Y661942D01*
X536051Y661955D01*
X535952Y661973D01*
X535855Y661994D01*
X535759Y662019D01*
X535663Y662048D01*
X535569Y662081D01*
X535476Y662117D01*
X535385Y662157D01*
X535295Y662201D01*
X535207Y662248D01*
X535121Y662298D01*
X535037Y662352D01*
X534955Y662409D01*
X534876Y662469D01*
X534798Y662533D01*
X534724Y662599D01*
X534652Y662668D01*
X534583Y662740D01*
X534517Y662814D01*
X534453Y662892D01*
X534393Y662971D01*
X534336Y663053D01*
X534282Y663137D01*
X534232Y663223D01*
X534185Y663311D01*
X534141Y663401D01*
X534101Y663492D01*
X534065Y663585D01*
X534032Y663679D01*
X534003Y663775D01*
X533978Y663871D01*
X533957Y663968D01*
X533939Y664067D01*
X533926Y664165D01*
X533916Y664265D01*
X533910Y664364D01*
X533908Y664464D01*
X533910Y664564D01*
X533916Y664663D01*
X533926Y664763D01*
X533939Y664861D01*
X533957Y664960D01*
X533978Y665057D01*
X534003Y665153D01*
X534032Y665249D01*
X534065Y665343D01*
X534101Y665436D01*
X534141Y665527D01*
X534185Y665617D01*
X534232Y665705D01*
X534282Y665791D01*
X534336Y665875D01*
X534393Y665957D01*
X534453Y666036D01*
X534517Y666114D01*
X534583Y666188D01*
X534652Y666260D01*
X534724Y666329D01*
X534798Y666395D01*
X534876Y666459D01*
X534955Y666519D01*
X535037Y666576D01*
X535121Y666630D01*
X535207Y666680D01*
X535295Y666727D01*
X535385Y666771D01*
X535476Y666811D01*
X535569Y666847D01*
X535663Y666880D01*
X535759Y666909D01*
X535855Y666934D01*
X535952Y666955D01*
X536051Y666973D01*
X536149Y666986D01*
X536249Y666996D01*
X536348Y667002D01*
X536448Y667004D01*
X540512Y667004D01*
X540612Y667002D01*
X540711Y666996D01*
X540811Y666986D01*
X540909Y666973D01*
X541008Y666955D01*
X541105Y666934D01*
X541201Y666909D01*
X541297Y666880D01*
X541391Y666847D01*
X541484Y666811D01*
X541575Y666771D01*
X541665Y666727D01*
X541753Y666680D01*
X541839Y666630D01*
X541923Y666576D01*
X542005Y666519D01*
X542084Y666459D01*
X542162Y666395D01*
X542236Y666329D01*
X542308Y666260D01*
X542377Y666188D01*
X542443Y666114D01*
X542507Y666036D01*
X542567Y665957D01*
X542624Y665875D01*
X542678Y665791D01*
X542728Y665705D01*
X542775Y665617D01*
X542819Y665527D01*
X542859Y665436D01*
X542895Y665343D01*
X542928Y665249D01*
X542957Y665153D01*
X542982Y665057D01*
X543003Y664960D01*
X543021Y664861D01*
X543034Y664763D01*
X543044Y664663D01*
X543050Y664564D01*
X543052Y664464D01*
X543050Y664364D01*
X543044Y664265D01*
X543034Y664165D01*
X543021Y664067D01*
X543003Y663968D01*
X542982Y663871D01*
X542957Y663775D01*
X542928Y663679D01*
X542895Y663585D01*
X542859Y663492D01*
X542819Y663401D01*
X542775Y663311D01*
X542728Y663223D01*
X542678Y663137D01*
X542624Y663053D01*
X542567Y662971D01*
X542507Y662892D01*
X542443Y662814D01*
X542377Y662740D01*
X542308Y662668D01*
X542236Y662599D01*
X542162Y662533D01*
X542084Y662469D01*
X542005Y662409D01*
X541923Y662352D01*
X541839Y662298D01*
X541753Y662248D01*
X541665Y662201D01*
X541575Y662157D01*
X541484Y662117D01*
X541391Y662081D01*
X541297Y662048D01*
X541201Y662019D01*
X541105Y661994D01*
X541008Y661973D01*
X540909Y661955D01*
X540811Y661942D01*
X540711Y661932D01*
X540612Y661926D01*
X540512Y661924D01*
X540512Y671373D02*
X533908Y671373D01*
X540512Y671373D02*
X540612Y671375D01*
X540711Y671381D01*
X540811Y671391D01*
X540909Y671404D01*
X541008Y671422D01*
X541105Y671443D01*
X541201Y671468D01*
X541297Y671497D01*
X541391Y671530D01*
X541484Y671566D01*
X541575Y671606D01*
X541665Y671650D01*
X541753Y671697D01*
X541839Y671747D01*
X541923Y671801D01*
X542005Y671858D01*
X542084Y671918D01*
X542162Y671982D01*
X542236Y672048D01*
X542308Y672117D01*
X542377Y672189D01*
X542443Y672263D01*
X542507Y672341D01*
X542567Y672420D01*
X542624Y672502D01*
X542678Y672586D01*
X542728Y672672D01*
X542775Y672760D01*
X542819Y672850D01*
X542859Y672941D01*
X542895Y673034D01*
X542928Y673128D01*
X542957Y673224D01*
X542982Y673320D01*
X543003Y673417D01*
X543021Y673516D01*
X543034Y673614D01*
X543044Y673714D01*
X543050Y673813D01*
X543052Y673913D01*
X543050Y674013D01*
X543044Y674112D01*
X543034Y674212D01*
X543021Y674310D01*
X543003Y674409D01*
X542982Y674506D01*
X542957Y674602D01*
X542928Y674698D01*
X542895Y674792D01*
X542859Y674885D01*
X542819Y674976D01*
X542775Y675066D01*
X542728Y675154D01*
X542678Y675240D01*
X542624Y675324D01*
X542567Y675406D01*
X542507Y675485D01*
X542443Y675563D01*
X542377Y675637D01*
X542308Y675709D01*
X542236Y675778D01*
X542162Y675844D01*
X542084Y675908D01*
X542005Y675968D01*
X541923Y676025D01*
X541839Y676079D01*
X541753Y676129D01*
X541665Y676176D01*
X541575Y676220D01*
X541484Y676260D01*
X541391Y676296D01*
X541297Y676329D01*
X541201Y676358D01*
X541105Y676383D01*
X541008Y676404D01*
X540909Y676422D01*
X540811Y676435D01*
X540711Y676445D01*
X540612Y676451D01*
X540512Y676453D01*
X533908Y676453D01*
X533908Y682752D02*
X543052Y682752D01*
X533908Y680212D02*
X533908Y685292D01*
D11*
X333700Y687700D02*
X326700Y687700D01*
X333700Y687700D02*
X333700Y658500D01*
X326700Y658500D01*
X326700Y687700D01*
X323200Y688600D02*
X313200Y688600D01*
D12*
X354403Y666806D02*
X354403Y661614D01*
X354402Y666806D02*
X354404Y666919D01*
X354410Y667032D01*
X354420Y667145D01*
X354434Y667258D01*
X354451Y667370D01*
X354473Y667481D01*
X354498Y667591D01*
X354528Y667701D01*
X354561Y667809D01*
X354598Y667916D01*
X354638Y668022D01*
X354683Y668126D01*
X354731Y668229D01*
X354782Y668330D01*
X354837Y668429D01*
X354895Y668526D01*
X354957Y668621D01*
X355022Y668714D01*
X355090Y668804D01*
X355161Y668892D01*
X355236Y668978D01*
X355313Y669061D01*
X355393Y669141D01*
X355476Y669218D01*
X355562Y669293D01*
X355650Y669364D01*
X355740Y669432D01*
X355833Y669497D01*
X355928Y669559D01*
X356025Y669617D01*
X356124Y669672D01*
X356225Y669723D01*
X356328Y669771D01*
X356432Y669816D01*
X356538Y669856D01*
X356645Y669893D01*
X356753Y669926D01*
X356863Y669956D01*
X356973Y669981D01*
X357084Y670003D01*
X357196Y670020D01*
X357309Y670034D01*
X357422Y670044D01*
X357535Y670050D01*
X357648Y670052D01*
X357761Y670050D01*
X357874Y670044D01*
X357987Y670034D01*
X358100Y670020D01*
X358212Y670003D01*
X358323Y669981D01*
X358433Y669956D01*
X358543Y669926D01*
X358651Y669893D01*
X358758Y669856D01*
X358864Y669816D01*
X358968Y669771D01*
X359071Y669723D01*
X359172Y669672D01*
X359271Y669617D01*
X359368Y669559D01*
X359463Y669497D01*
X359556Y669432D01*
X359646Y669364D01*
X359734Y669293D01*
X359820Y669218D01*
X359903Y669141D01*
X359983Y669061D01*
X360060Y668978D01*
X360135Y668892D01*
X360206Y668804D01*
X360274Y668714D01*
X360339Y668621D01*
X360401Y668526D01*
X360459Y668429D01*
X360514Y668330D01*
X360565Y668229D01*
X360613Y668126D01*
X360658Y668022D01*
X360698Y667916D01*
X360735Y667809D01*
X360768Y667701D01*
X360798Y667591D01*
X360823Y667481D01*
X360845Y667370D01*
X360862Y667258D01*
X360876Y667145D01*
X360886Y667032D01*
X360892Y666919D01*
X360894Y666806D01*
X360894Y661614D01*
X360892Y661501D01*
X360886Y661388D01*
X360876Y661275D01*
X360862Y661162D01*
X360845Y661050D01*
X360823Y660939D01*
X360798Y660829D01*
X360768Y660719D01*
X360735Y660611D01*
X360698Y660504D01*
X360658Y660398D01*
X360613Y660294D01*
X360565Y660191D01*
X360514Y660090D01*
X360459Y659991D01*
X360401Y659894D01*
X360339Y659799D01*
X360274Y659706D01*
X360206Y659616D01*
X360135Y659528D01*
X360060Y659442D01*
X359983Y659359D01*
X359903Y659279D01*
X359820Y659202D01*
X359734Y659127D01*
X359646Y659056D01*
X359556Y658988D01*
X359463Y658923D01*
X359368Y658861D01*
X359271Y658803D01*
X359172Y658748D01*
X359071Y658697D01*
X358968Y658649D01*
X358864Y658604D01*
X358758Y658564D01*
X358651Y658527D01*
X358543Y658494D01*
X358433Y658464D01*
X358323Y658439D01*
X358212Y658417D01*
X358100Y658400D01*
X357987Y658386D01*
X357874Y658376D01*
X357761Y658370D01*
X357648Y658368D01*
X357535Y658370D01*
X357422Y658376D01*
X357309Y658386D01*
X357196Y658400D01*
X357084Y658417D01*
X356973Y658439D01*
X356863Y658464D01*
X356753Y658494D01*
X356645Y658527D01*
X356538Y658564D01*
X356432Y658604D01*
X356328Y658649D01*
X356225Y658697D01*
X356124Y658748D01*
X356025Y658803D01*
X355928Y658861D01*
X355833Y658923D01*
X355740Y658988D01*
X355650Y659056D01*
X355562Y659127D01*
X355476Y659202D01*
X355393Y659279D01*
X355313Y659359D01*
X355236Y659442D01*
X355161Y659528D01*
X355090Y659616D01*
X355022Y659706D01*
X354957Y659799D01*
X354895Y659894D01*
X354837Y659991D01*
X354782Y660090D01*
X354731Y660191D01*
X354683Y660294D01*
X354638Y660398D01*
X354598Y660504D01*
X354561Y660611D01*
X354528Y660719D01*
X354498Y660829D01*
X354473Y660939D01*
X354451Y661050D01*
X354434Y661162D01*
X354420Y661275D01*
X354410Y661388D01*
X354404Y661501D01*
X354402Y661614D01*
X359595Y660964D02*
X362192Y658368D01*
X365546Y667456D02*
X368792Y670052D01*
X368792Y658368D01*
X365546Y658368D02*
X372038Y658368D01*
D11*
X333700Y636900D02*
X326700Y636900D01*
X333700Y636900D02*
X333700Y607700D01*
X326700Y607700D01*
X326700Y636900D01*
X323200Y637800D02*
X313200Y637800D01*
D12*
X353133Y616006D02*
X353133Y610814D01*
X353132Y616006D02*
X353134Y616119D01*
X353140Y616232D01*
X353150Y616345D01*
X353164Y616458D01*
X353181Y616570D01*
X353203Y616681D01*
X353228Y616791D01*
X353258Y616901D01*
X353291Y617009D01*
X353328Y617116D01*
X353368Y617222D01*
X353413Y617326D01*
X353461Y617429D01*
X353512Y617530D01*
X353567Y617629D01*
X353625Y617726D01*
X353687Y617821D01*
X353752Y617914D01*
X353820Y618004D01*
X353891Y618092D01*
X353966Y618178D01*
X354043Y618261D01*
X354123Y618341D01*
X354206Y618418D01*
X354292Y618493D01*
X354380Y618564D01*
X354470Y618632D01*
X354563Y618697D01*
X354658Y618759D01*
X354755Y618817D01*
X354854Y618872D01*
X354955Y618923D01*
X355058Y618971D01*
X355162Y619016D01*
X355268Y619056D01*
X355375Y619093D01*
X355483Y619126D01*
X355593Y619156D01*
X355703Y619181D01*
X355814Y619203D01*
X355926Y619220D01*
X356039Y619234D01*
X356152Y619244D01*
X356265Y619250D01*
X356378Y619252D01*
X356491Y619250D01*
X356604Y619244D01*
X356717Y619234D01*
X356830Y619220D01*
X356942Y619203D01*
X357053Y619181D01*
X357163Y619156D01*
X357273Y619126D01*
X357381Y619093D01*
X357488Y619056D01*
X357594Y619016D01*
X357698Y618971D01*
X357801Y618923D01*
X357902Y618872D01*
X358001Y618817D01*
X358098Y618759D01*
X358193Y618697D01*
X358286Y618632D01*
X358376Y618564D01*
X358464Y618493D01*
X358550Y618418D01*
X358633Y618341D01*
X358713Y618261D01*
X358790Y618178D01*
X358865Y618092D01*
X358936Y618004D01*
X359004Y617914D01*
X359069Y617821D01*
X359131Y617726D01*
X359189Y617629D01*
X359244Y617530D01*
X359295Y617429D01*
X359343Y617326D01*
X359388Y617222D01*
X359428Y617116D01*
X359465Y617009D01*
X359498Y616901D01*
X359528Y616791D01*
X359553Y616681D01*
X359575Y616570D01*
X359592Y616458D01*
X359606Y616345D01*
X359616Y616232D01*
X359622Y616119D01*
X359624Y616006D01*
X359624Y610814D01*
X359622Y610701D01*
X359616Y610588D01*
X359606Y610475D01*
X359592Y610362D01*
X359575Y610250D01*
X359553Y610139D01*
X359528Y610029D01*
X359498Y609919D01*
X359465Y609811D01*
X359428Y609704D01*
X359388Y609598D01*
X359343Y609494D01*
X359295Y609391D01*
X359244Y609290D01*
X359189Y609191D01*
X359131Y609094D01*
X359069Y608999D01*
X359004Y608906D01*
X358936Y608816D01*
X358865Y608728D01*
X358790Y608642D01*
X358713Y608559D01*
X358633Y608479D01*
X358550Y608402D01*
X358464Y608327D01*
X358376Y608256D01*
X358286Y608188D01*
X358193Y608123D01*
X358098Y608061D01*
X358001Y608003D01*
X357902Y607948D01*
X357801Y607897D01*
X357698Y607849D01*
X357594Y607804D01*
X357488Y607764D01*
X357381Y607727D01*
X357273Y607694D01*
X357163Y607664D01*
X357053Y607639D01*
X356942Y607617D01*
X356830Y607600D01*
X356717Y607586D01*
X356604Y607576D01*
X356491Y607570D01*
X356378Y607568D01*
X356265Y607570D01*
X356152Y607576D01*
X356039Y607586D01*
X355926Y607600D01*
X355814Y607617D01*
X355703Y607639D01*
X355593Y607664D01*
X355483Y607694D01*
X355375Y607727D01*
X355268Y607764D01*
X355162Y607804D01*
X355058Y607849D01*
X354955Y607897D01*
X354854Y607948D01*
X354755Y608003D01*
X354658Y608061D01*
X354563Y608123D01*
X354470Y608188D01*
X354380Y608256D01*
X354292Y608327D01*
X354206Y608402D01*
X354123Y608479D01*
X354043Y608559D01*
X353966Y608642D01*
X353891Y608728D01*
X353820Y608816D01*
X353752Y608906D01*
X353687Y608999D01*
X353625Y609094D01*
X353567Y609191D01*
X353512Y609290D01*
X353461Y609391D01*
X353413Y609494D01*
X353368Y609598D01*
X353328Y609704D01*
X353291Y609811D01*
X353258Y609919D01*
X353228Y610029D01*
X353203Y610139D01*
X353181Y610250D01*
X353164Y610362D01*
X353150Y610475D01*
X353140Y610588D01*
X353134Y610701D01*
X353132Y610814D01*
X358325Y610164D02*
X360922Y607568D01*
X370768Y616331D02*
X370766Y616438D01*
X370760Y616544D01*
X370750Y616650D01*
X370737Y616756D01*
X370719Y616862D01*
X370698Y616966D01*
X370673Y617070D01*
X370644Y617173D01*
X370612Y617274D01*
X370575Y617374D01*
X370535Y617473D01*
X370492Y617571D01*
X370445Y617667D01*
X370394Y617761D01*
X370340Y617853D01*
X370283Y617943D01*
X370223Y618031D01*
X370159Y618116D01*
X370092Y618199D01*
X370022Y618280D01*
X369950Y618358D01*
X369874Y618434D01*
X369796Y618506D01*
X369715Y618576D01*
X369632Y618643D01*
X369547Y618707D01*
X369459Y618767D01*
X369369Y618824D01*
X369277Y618878D01*
X369183Y618929D01*
X369087Y618976D01*
X368989Y619019D01*
X368890Y619059D01*
X368790Y619096D01*
X368689Y619128D01*
X368586Y619157D01*
X368482Y619182D01*
X368378Y619203D01*
X368272Y619221D01*
X368166Y619234D01*
X368060Y619244D01*
X367954Y619250D01*
X367847Y619252D01*
X367726Y619250D01*
X367605Y619244D01*
X367485Y619234D01*
X367364Y619221D01*
X367245Y619203D01*
X367125Y619182D01*
X367007Y619157D01*
X366890Y619128D01*
X366773Y619095D01*
X366658Y619059D01*
X366544Y619018D01*
X366431Y618975D01*
X366319Y618927D01*
X366210Y618876D01*
X366102Y618821D01*
X365995Y618763D01*
X365891Y618702D01*
X365789Y618637D01*
X365689Y618569D01*
X365591Y618498D01*
X365495Y618424D01*
X365402Y618347D01*
X365312Y618266D01*
X365224Y618183D01*
X365139Y618097D01*
X365056Y618008D01*
X364977Y617917D01*
X364900Y617823D01*
X364827Y617727D01*
X364757Y617629D01*
X364690Y617528D01*
X364626Y617425D01*
X364566Y617320D01*
X364509Y617213D01*
X364455Y617105D01*
X364405Y616995D01*
X364359Y616883D01*
X364316Y616770D01*
X364277Y616655D01*
X369794Y614059D02*
X369873Y614136D01*
X369949Y614217D01*
X370022Y614300D01*
X370092Y614385D01*
X370159Y614473D01*
X370223Y614563D01*
X370283Y614655D01*
X370340Y614750D01*
X370394Y614846D01*
X370445Y614944D01*
X370492Y615044D01*
X370536Y615146D01*
X370576Y615249D01*
X370612Y615353D01*
X370644Y615459D01*
X370673Y615565D01*
X370698Y615673D01*
X370720Y615781D01*
X370737Y615891D01*
X370751Y616000D01*
X370760Y616110D01*
X370766Y616221D01*
X370768Y616331D01*
X369794Y614059D02*
X364276Y607568D01*
X370768Y607568D01*
D11*
X333700Y586100D02*
X326700Y586100D01*
X333700Y586100D02*
X333700Y556900D01*
X326700Y556900D01*
X326700Y586100D01*
X323200Y587000D02*
X313200Y587000D01*
D12*
X354403Y565206D02*
X354403Y560014D01*
X354402Y565206D02*
X354404Y565319D01*
X354410Y565432D01*
X354420Y565545D01*
X354434Y565658D01*
X354451Y565770D01*
X354473Y565881D01*
X354498Y565991D01*
X354528Y566101D01*
X354561Y566209D01*
X354598Y566316D01*
X354638Y566422D01*
X354683Y566526D01*
X354731Y566629D01*
X354782Y566730D01*
X354837Y566829D01*
X354895Y566926D01*
X354957Y567021D01*
X355022Y567114D01*
X355090Y567204D01*
X355161Y567292D01*
X355236Y567378D01*
X355313Y567461D01*
X355393Y567541D01*
X355476Y567618D01*
X355562Y567693D01*
X355650Y567764D01*
X355740Y567832D01*
X355833Y567897D01*
X355928Y567959D01*
X356025Y568017D01*
X356124Y568072D01*
X356225Y568123D01*
X356328Y568171D01*
X356432Y568216D01*
X356538Y568256D01*
X356645Y568293D01*
X356753Y568326D01*
X356863Y568356D01*
X356973Y568381D01*
X357084Y568403D01*
X357196Y568420D01*
X357309Y568434D01*
X357422Y568444D01*
X357535Y568450D01*
X357648Y568452D01*
X357761Y568450D01*
X357874Y568444D01*
X357987Y568434D01*
X358100Y568420D01*
X358212Y568403D01*
X358323Y568381D01*
X358433Y568356D01*
X358543Y568326D01*
X358651Y568293D01*
X358758Y568256D01*
X358864Y568216D01*
X358968Y568171D01*
X359071Y568123D01*
X359172Y568072D01*
X359271Y568017D01*
X359368Y567959D01*
X359463Y567897D01*
X359556Y567832D01*
X359646Y567764D01*
X359734Y567693D01*
X359820Y567618D01*
X359903Y567541D01*
X359983Y567461D01*
X360060Y567378D01*
X360135Y567292D01*
X360206Y567204D01*
X360274Y567114D01*
X360339Y567021D01*
X360401Y566926D01*
X360459Y566829D01*
X360514Y566730D01*
X360565Y566629D01*
X360613Y566526D01*
X360658Y566422D01*
X360698Y566316D01*
X360735Y566209D01*
X360768Y566101D01*
X360798Y565991D01*
X360823Y565881D01*
X360845Y565770D01*
X360862Y565658D01*
X360876Y565545D01*
X360886Y565432D01*
X360892Y565319D01*
X360894Y565206D01*
X360894Y560014D01*
X360892Y559901D01*
X360886Y559788D01*
X360876Y559675D01*
X360862Y559562D01*
X360845Y559450D01*
X360823Y559339D01*
X360798Y559229D01*
X360768Y559119D01*
X360735Y559011D01*
X360698Y558904D01*
X360658Y558798D01*
X360613Y558694D01*
X360565Y558591D01*
X360514Y558490D01*
X360459Y558391D01*
X360401Y558294D01*
X360339Y558199D01*
X360274Y558106D01*
X360206Y558016D01*
X360135Y557928D01*
X360060Y557842D01*
X359983Y557759D01*
X359903Y557679D01*
X359820Y557602D01*
X359734Y557527D01*
X359646Y557456D01*
X359556Y557388D01*
X359463Y557323D01*
X359368Y557261D01*
X359271Y557203D01*
X359172Y557148D01*
X359071Y557097D01*
X358968Y557049D01*
X358864Y557004D01*
X358758Y556964D01*
X358651Y556927D01*
X358543Y556894D01*
X358433Y556864D01*
X358323Y556839D01*
X358212Y556817D01*
X358100Y556800D01*
X357987Y556786D01*
X357874Y556776D01*
X357761Y556770D01*
X357648Y556768D01*
X357535Y556770D01*
X357422Y556776D01*
X357309Y556786D01*
X357196Y556800D01*
X357084Y556817D01*
X356973Y556839D01*
X356863Y556864D01*
X356753Y556894D01*
X356645Y556927D01*
X356538Y556964D01*
X356432Y557004D01*
X356328Y557049D01*
X356225Y557097D01*
X356124Y557148D01*
X356025Y557203D01*
X355928Y557261D01*
X355833Y557323D01*
X355740Y557388D01*
X355650Y557456D01*
X355562Y557527D01*
X355476Y557602D01*
X355393Y557679D01*
X355313Y557759D01*
X355236Y557842D01*
X355161Y557928D01*
X355090Y558016D01*
X355022Y558106D01*
X354957Y558199D01*
X354895Y558294D01*
X354837Y558391D01*
X354782Y558490D01*
X354731Y558591D01*
X354683Y558694D01*
X354638Y558798D01*
X354598Y558904D01*
X354561Y559011D01*
X354528Y559119D01*
X354498Y559229D01*
X354473Y559339D01*
X354451Y559450D01*
X354434Y559562D01*
X354420Y559675D01*
X354410Y559788D01*
X354404Y559901D01*
X354402Y560014D01*
X359595Y559364D02*
X362192Y556768D01*
X365546Y556768D02*
X368792Y556768D01*
X368905Y556770D01*
X369018Y556776D01*
X369131Y556786D01*
X369244Y556800D01*
X369356Y556817D01*
X369467Y556839D01*
X369577Y556864D01*
X369687Y556894D01*
X369795Y556927D01*
X369902Y556964D01*
X370008Y557004D01*
X370112Y557049D01*
X370215Y557097D01*
X370316Y557148D01*
X370415Y557203D01*
X370512Y557261D01*
X370607Y557323D01*
X370700Y557388D01*
X370790Y557456D01*
X370878Y557527D01*
X370964Y557602D01*
X371047Y557679D01*
X371127Y557759D01*
X371204Y557842D01*
X371279Y557928D01*
X371350Y558016D01*
X371418Y558106D01*
X371483Y558199D01*
X371545Y558294D01*
X371603Y558391D01*
X371658Y558490D01*
X371709Y558591D01*
X371757Y558694D01*
X371802Y558798D01*
X371842Y558904D01*
X371879Y559011D01*
X371912Y559119D01*
X371942Y559229D01*
X371967Y559339D01*
X371989Y559450D01*
X372006Y559562D01*
X372020Y559675D01*
X372030Y559788D01*
X372036Y559901D01*
X372038Y560014D01*
X372036Y560127D01*
X372030Y560240D01*
X372020Y560353D01*
X372006Y560466D01*
X371989Y560578D01*
X371967Y560689D01*
X371942Y560799D01*
X371912Y560909D01*
X371879Y561017D01*
X371842Y561124D01*
X371802Y561230D01*
X371757Y561334D01*
X371709Y561437D01*
X371658Y561538D01*
X371603Y561637D01*
X371545Y561734D01*
X371483Y561829D01*
X371418Y561922D01*
X371350Y562012D01*
X371279Y562100D01*
X371204Y562186D01*
X371127Y562269D01*
X371047Y562349D01*
X370964Y562426D01*
X370878Y562501D01*
X370790Y562572D01*
X370700Y562640D01*
X370607Y562705D01*
X370512Y562767D01*
X370415Y562825D01*
X370316Y562880D01*
X370215Y562931D01*
X370112Y562979D01*
X370008Y563024D01*
X369902Y563064D01*
X369795Y563101D01*
X369687Y563134D01*
X369577Y563164D01*
X369467Y563189D01*
X369356Y563211D01*
X369244Y563228D01*
X369131Y563242D01*
X369018Y563252D01*
X368905Y563258D01*
X368792Y563260D01*
X369441Y568452D02*
X365546Y568452D01*
X369441Y568452D02*
X369542Y568450D01*
X369642Y568444D01*
X369742Y568434D01*
X369842Y568421D01*
X369941Y568403D01*
X370040Y568382D01*
X370137Y568357D01*
X370234Y568328D01*
X370329Y568295D01*
X370423Y568259D01*
X370515Y568219D01*
X370606Y568176D01*
X370695Y568129D01*
X370782Y568079D01*
X370868Y568025D01*
X370951Y567968D01*
X371031Y567908D01*
X371110Y567845D01*
X371186Y567778D01*
X371259Y567709D01*
X371329Y567637D01*
X371397Y567563D01*
X371462Y567486D01*
X371523Y567406D01*
X371582Y567324D01*
X371637Y567240D01*
X371689Y567154D01*
X371738Y567066D01*
X371783Y566976D01*
X371825Y566884D01*
X371863Y566791D01*
X371897Y566696D01*
X371928Y566601D01*
X371955Y566504D01*
X371978Y566406D01*
X371998Y566307D01*
X372013Y566207D01*
X372025Y566107D01*
X372033Y566007D01*
X372037Y565906D01*
X372037Y565806D01*
X372033Y565705D01*
X372025Y565605D01*
X372013Y565505D01*
X371998Y565405D01*
X371978Y565306D01*
X371955Y565208D01*
X371928Y565111D01*
X371897Y565016D01*
X371863Y564921D01*
X371825Y564828D01*
X371783Y564736D01*
X371738Y564646D01*
X371689Y564558D01*
X371637Y564472D01*
X371582Y564388D01*
X371523Y564306D01*
X371462Y564226D01*
X371397Y564149D01*
X371329Y564075D01*
X371259Y564003D01*
X371186Y563934D01*
X371110Y563867D01*
X371031Y563804D01*
X370951Y563744D01*
X370868Y563687D01*
X370782Y563633D01*
X370695Y563583D01*
X370606Y563536D01*
X370515Y563493D01*
X370423Y563453D01*
X370329Y563417D01*
X370234Y563384D01*
X370137Y563355D01*
X370040Y563330D01*
X369941Y563309D01*
X369842Y563291D01*
X369742Y563278D01*
X369642Y563268D01*
X369542Y563262D01*
X369441Y563260D01*
X369441Y563259D02*
X366845Y563259D01*
D11*
X333700Y535300D02*
X326700Y535300D01*
X333700Y535300D02*
X333700Y506100D01*
X326700Y506100D01*
X326700Y535300D01*
X323200Y536200D02*
X313200Y536200D01*
D12*
X354403Y513136D02*
X354403Y507944D01*
X354402Y513136D02*
X354404Y513249D01*
X354410Y513362D01*
X354420Y513475D01*
X354434Y513588D01*
X354451Y513700D01*
X354473Y513811D01*
X354498Y513921D01*
X354528Y514031D01*
X354561Y514139D01*
X354598Y514246D01*
X354638Y514352D01*
X354683Y514456D01*
X354731Y514559D01*
X354782Y514660D01*
X354837Y514759D01*
X354895Y514856D01*
X354957Y514951D01*
X355022Y515044D01*
X355090Y515134D01*
X355161Y515222D01*
X355236Y515308D01*
X355313Y515391D01*
X355393Y515471D01*
X355476Y515548D01*
X355562Y515623D01*
X355650Y515694D01*
X355740Y515762D01*
X355833Y515827D01*
X355928Y515889D01*
X356025Y515947D01*
X356124Y516002D01*
X356225Y516053D01*
X356328Y516101D01*
X356432Y516146D01*
X356538Y516186D01*
X356645Y516223D01*
X356753Y516256D01*
X356863Y516286D01*
X356973Y516311D01*
X357084Y516333D01*
X357196Y516350D01*
X357309Y516364D01*
X357422Y516374D01*
X357535Y516380D01*
X357648Y516382D01*
X357761Y516380D01*
X357874Y516374D01*
X357987Y516364D01*
X358100Y516350D01*
X358212Y516333D01*
X358323Y516311D01*
X358433Y516286D01*
X358543Y516256D01*
X358651Y516223D01*
X358758Y516186D01*
X358864Y516146D01*
X358968Y516101D01*
X359071Y516053D01*
X359172Y516002D01*
X359271Y515947D01*
X359368Y515889D01*
X359463Y515827D01*
X359556Y515762D01*
X359646Y515694D01*
X359734Y515623D01*
X359820Y515548D01*
X359903Y515471D01*
X359983Y515391D01*
X360060Y515308D01*
X360135Y515222D01*
X360206Y515134D01*
X360274Y515044D01*
X360339Y514951D01*
X360401Y514856D01*
X360459Y514759D01*
X360514Y514660D01*
X360565Y514559D01*
X360613Y514456D01*
X360658Y514352D01*
X360698Y514246D01*
X360735Y514139D01*
X360768Y514031D01*
X360798Y513921D01*
X360823Y513811D01*
X360845Y513700D01*
X360862Y513588D01*
X360876Y513475D01*
X360886Y513362D01*
X360892Y513249D01*
X360894Y513136D01*
X360894Y507944D01*
X360892Y507831D01*
X360886Y507718D01*
X360876Y507605D01*
X360862Y507492D01*
X360845Y507380D01*
X360823Y507269D01*
X360798Y507159D01*
X360768Y507049D01*
X360735Y506941D01*
X360698Y506834D01*
X360658Y506728D01*
X360613Y506624D01*
X360565Y506521D01*
X360514Y506420D01*
X360459Y506321D01*
X360401Y506224D01*
X360339Y506129D01*
X360274Y506036D01*
X360206Y505946D01*
X360135Y505858D01*
X360060Y505772D01*
X359983Y505689D01*
X359903Y505609D01*
X359820Y505532D01*
X359734Y505457D01*
X359646Y505386D01*
X359556Y505318D01*
X359463Y505253D01*
X359368Y505191D01*
X359271Y505133D01*
X359172Y505078D01*
X359071Y505027D01*
X358968Y504979D01*
X358864Y504934D01*
X358758Y504894D01*
X358651Y504857D01*
X358543Y504824D01*
X358433Y504794D01*
X358323Y504769D01*
X358212Y504747D01*
X358100Y504730D01*
X357987Y504716D01*
X357874Y504706D01*
X357761Y504700D01*
X357648Y504698D01*
X357535Y504700D01*
X357422Y504706D01*
X357309Y504716D01*
X357196Y504730D01*
X357084Y504747D01*
X356973Y504769D01*
X356863Y504794D01*
X356753Y504824D01*
X356645Y504857D01*
X356538Y504894D01*
X356432Y504934D01*
X356328Y504979D01*
X356225Y505027D01*
X356124Y505078D01*
X356025Y505133D01*
X355928Y505191D01*
X355833Y505253D01*
X355740Y505318D01*
X355650Y505386D01*
X355562Y505457D01*
X355476Y505532D01*
X355393Y505609D01*
X355313Y505689D01*
X355236Y505772D01*
X355161Y505858D01*
X355090Y505946D01*
X355022Y506036D01*
X354957Y506129D01*
X354895Y506224D01*
X354837Y506321D01*
X354782Y506420D01*
X354731Y506521D01*
X354683Y506624D01*
X354638Y506728D01*
X354598Y506834D01*
X354561Y506941D01*
X354528Y507049D01*
X354498Y507159D01*
X354473Y507269D01*
X354451Y507380D01*
X354434Y507492D01*
X354420Y507605D01*
X354410Y507718D01*
X354404Y507831D01*
X354402Y507944D01*
X359595Y507294D02*
X362192Y504698D01*
X365546Y507294D02*
X368143Y516382D01*
X365546Y507294D02*
X372038Y507294D01*
X370090Y504698D02*
X370090Y509891D01*
D11*
X333700Y484500D02*
X326700Y484500D01*
X333700Y484500D02*
X333700Y455300D01*
X326700Y455300D01*
X326700Y484500D01*
X323200Y485400D02*
X313200Y485400D01*
D12*
X353133Y462336D02*
X353133Y457144D01*
X353132Y462336D02*
X353134Y462449D01*
X353140Y462562D01*
X353150Y462675D01*
X353164Y462788D01*
X353181Y462900D01*
X353203Y463011D01*
X353228Y463121D01*
X353258Y463231D01*
X353291Y463339D01*
X353328Y463446D01*
X353368Y463552D01*
X353413Y463656D01*
X353461Y463759D01*
X353512Y463860D01*
X353567Y463959D01*
X353625Y464056D01*
X353687Y464151D01*
X353752Y464244D01*
X353820Y464334D01*
X353891Y464422D01*
X353966Y464508D01*
X354043Y464591D01*
X354123Y464671D01*
X354206Y464748D01*
X354292Y464823D01*
X354380Y464894D01*
X354470Y464962D01*
X354563Y465027D01*
X354658Y465089D01*
X354755Y465147D01*
X354854Y465202D01*
X354955Y465253D01*
X355058Y465301D01*
X355162Y465346D01*
X355268Y465386D01*
X355375Y465423D01*
X355483Y465456D01*
X355593Y465486D01*
X355703Y465511D01*
X355814Y465533D01*
X355926Y465550D01*
X356039Y465564D01*
X356152Y465574D01*
X356265Y465580D01*
X356378Y465582D01*
X356491Y465580D01*
X356604Y465574D01*
X356717Y465564D01*
X356830Y465550D01*
X356942Y465533D01*
X357053Y465511D01*
X357163Y465486D01*
X357273Y465456D01*
X357381Y465423D01*
X357488Y465386D01*
X357594Y465346D01*
X357698Y465301D01*
X357801Y465253D01*
X357902Y465202D01*
X358001Y465147D01*
X358098Y465089D01*
X358193Y465027D01*
X358286Y464962D01*
X358376Y464894D01*
X358464Y464823D01*
X358550Y464748D01*
X358633Y464671D01*
X358713Y464591D01*
X358790Y464508D01*
X358865Y464422D01*
X358936Y464334D01*
X359004Y464244D01*
X359069Y464151D01*
X359131Y464056D01*
X359189Y463959D01*
X359244Y463860D01*
X359295Y463759D01*
X359343Y463656D01*
X359388Y463552D01*
X359428Y463446D01*
X359465Y463339D01*
X359498Y463231D01*
X359528Y463121D01*
X359553Y463011D01*
X359575Y462900D01*
X359592Y462788D01*
X359606Y462675D01*
X359616Y462562D01*
X359622Y462449D01*
X359624Y462336D01*
X359624Y457144D01*
X359622Y457031D01*
X359616Y456918D01*
X359606Y456805D01*
X359592Y456692D01*
X359575Y456580D01*
X359553Y456469D01*
X359528Y456359D01*
X359498Y456249D01*
X359465Y456141D01*
X359428Y456034D01*
X359388Y455928D01*
X359343Y455824D01*
X359295Y455721D01*
X359244Y455620D01*
X359189Y455521D01*
X359131Y455424D01*
X359069Y455329D01*
X359004Y455236D01*
X358936Y455146D01*
X358865Y455058D01*
X358790Y454972D01*
X358713Y454889D01*
X358633Y454809D01*
X358550Y454732D01*
X358464Y454657D01*
X358376Y454586D01*
X358286Y454518D01*
X358193Y454453D01*
X358098Y454391D01*
X358001Y454333D01*
X357902Y454278D01*
X357801Y454227D01*
X357698Y454179D01*
X357594Y454134D01*
X357488Y454094D01*
X357381Y454057D01*
X357273Y454024D01*
X357163Y453994D01*
X357053Y453969D01*
X356942Y453947D01*
X356830Y453930D01*
X356717Y453916D01*
X356604Y453906D01*
X356491Y453900D01*
X356378Y453898D01*
X356265Y453900D01*
X356152Y453906D01*
X356039Y453916D01*
X355926Y453930D01*
X355814Y453947D01*
X355703Y453969D01*
X355593Y453994D01*
X355483Y454024D01*
X355375Y454057D01*
X355268Y454094D01*
X355162Y454134D01*
X355058Y454179D01*
X354955Y454227D01*
X354854Y454278D01*
X354755Y454333D01*
X354658Y454391D01*
X354563Y454453D01*
X354470Y454518D01*
X354380Y454586D01*
X354292Y454657D01*
X354206Y454732D01*
X354123Y454809D01*
X354043Y454889D01*
X353966Y454972D01*
X353891Y455058D01*
X353820Y455146D01*
X353752Y455236D01*
X353687Y455329D01*
X353625Y455424D01*
X353567Y455521D01*
X353512Y455620D01*
X353461Y455721D01*
X353413Y455824D01*
X353368Y455928D01*
X353328Y456034D01*
X353291Y456141D01*
X353258Y456249D01*
X353228Y456359D01*
X353203Y456469D01*
X353181Y456580D01*
X353164Y456692D01*
X353150Y456805D01*
X353140Y456918D01*
X353134Y457031D01*
X353132Y457144D01*
X358325Y456494D02*
X360922Y453898D01*
X364276Y453898D02*
X368171Y453898D01*
X368270Y453900D01*
X368370Y453906D01*
X368469Y453915D01*
X368567Y453928D01*
X368665Y453945D01*
X368763Y453966D01*
X368859Y453991D01*
X368954Y454019D01*
X369048Y454051D01*
X369141Y454086D01*
X369233Y454125D01*
X369323Y454168D01*
X369411Y454213D01*
X369498Y454263D01*
X369582Y454315D01*
X369665Y454371D01*
X369745Y454429D01*
X369823Y454491D01*
X369898Y454556D01*
X369971Y454624D01*
X370041Y454694D01*
X370109Y454767D01*
X370174Y454842D01*
X370236Y454920D01*
X370294Y455000D01*
X370350Y455083D01*
X370402Y455167D01*
X370452Y455254D01*
X370497Y455342D01*
X370540Y455432D01*
X370579Y455524D01*
X370614Y455617D01*
X370646Y455711D01*
X370674Y455806D01*
X370699Y455902D01*
X370720Y456000D01*
X370737Y456098D01*
X370750Y456196D01*
X370759Y456295D01*
X370765Y456395D01*
X370767Y456494D01*
X370768Y456494D02*
X370768Y457793D01*
X370767Y457793D02*
X370765Y457892D01*
X370759Y457992D01*
X370750Y458091D01*
X370737Y458189D01*
X370720Y458287D01*
X370699Y458385D01*
X370674Y458481D01*
X370646Y458576D01*
X370614Y458670D01*
X370579Y458763D01*
X370540Y458855D01*
X370497Y458945D01*
X370452Y459033D01*
X370402Y459120D01*
X370350Y459204D01*
X370294Y459287D01*
X370236Y459367D01*
X370174Y459445D01*
X370109Y459520D01*
X370041Y459593D01*
X369971Y459663D01*
X369898Y459731D01*
X369823Y459796D01*
X369745Y459858D01*
X369665Y459916D01*
X369582Y459972D01*
X369498Y460024D01*
X369411Y460074D01*
X369323Y460119D01*
X369233Y460162D01*
X369141Y460201D01*
X369048Y460236D01*
X368954Y460268D01*
X368859Y460296D01*
X368763Y460321D01*
X368665Y460342D01*
X368567Y460359D01*
X368469Y460372D01*
X368370Y460381D01*
X368270Y460387D01*
X368171Y460389D01*
X364276Y460389D01*
X364276Y465582D01*
X370768Y465582D01*
D11*
X333700Y433700D02*
X326700Y433700D01*
X333700Y433700D02*
X333700Y404500D01*
X326700Y404500D01*
X326700Y433700D01*
X323200Y434600D02*
X313200Y434600D01*
D12*
X354403Y411536D02*
X354403Y406344D01*
X354402Y411536D02*
X354404Y411649D01*
X354410Y411762D01*
X354420Y411875D01*
X354434Y411988D01*
X354451Y412100D01*
X354473Y412211D01*
X354498Y412321D01*
X354528Y412431D01*
X354561Y412539D01*
X354598Y412646D01*
X354638Y412752D01*
X354683Y412856D01*
X354731Y412959D01*
X354782Y413060D01*
X354837Y413159D01*
X354895Y413256D01*
X354957Y413351D01*
X355022Y413444D01*
X355090Y413534D01*
X355161Y413622D01*
X355236Y413708D01*
X355313Y413791D01*
X355393Y413871D01*
X355476Y413948D01*
X355562Y414023D01*
X355650Y414094D01*
X355740Y414162D01*
X355833Y414227D01*
X355928Y414289D01*
X356025Y414347D01*
X356124Y414402D01*
X356225Y414453D01*
X356328Y414501D01*
X356432Y414546D01*
X356538Y414586D01*
X356645Y414623D01*
X356753Y414656D01*
X356863Y414686D01*
X356973Y414711D01*
X357084Y414733D01*
X357196Y414750D01*
X357309Y414764D01*
X357422Y414774D01*
X357535Y414780D01*
X357648Y414782D01*
X357761Y414780D01*
X357874Y414774D01*
X357987Y414764D01*
X358100Y414750D01*
X358212Y414733D01*
X358323Y414711D01*
X358433Y414686D01*
X358543Y414656D01*
X358651Y414623D01*
X358758Y414586D01*
X358864Y414546D01*
X358968Y414501D01*
X359071Y414453D01*
X359172Y414402D01*
X359271Y414347D01*
X359368Y414289D01*
X359463Y414227D01*
X359556Y414162D01*
X359646Y414094D01*
X359734Y414023D01*
X359820Y413948D01*
X359903Y413871D01*
X359983Y413791D01*
X360060Y413708D01*
X360135Y413622D01*
X360206Y413534D01*
X360274Y413444D01*
X360339Y413351D01*
X360401Y413256D01*
X360459Y413159D01*
X360514Y413060D01*
X360565Y412959D01*
X360613Y412856D01*
X360658Y412752D01*
X360698Y412646D01*
X360735Y412539D01*
X360768Y412431D01*
X360798Y412321D01*
X360823Y412211D01*
X360845Y412100D01*
X360862Y411988D01*
X360876Y411875D01*
X360886Y411762D01*
X360892Y411649D01*
X360894Y411536D01*
X360894Y406344D01*
X360892Y406231D01*
X360886Y406118D01*
X360876Y406005D01*
X360862Y405892D01*
X360845Y405780D01*
X360823Y405669D01*
X360798Y405559D01*
X360768Y405449D01*
X360735Y405341D01*
X360698Y405234D01*
X360658Y405128D01*
X360613Y405024D01*
X360565Y404921D01*
X360514Y404820D01*
X360459Y404721D01*
X360401Y404624D01*
X360339Y404529D01*
X360274Y404436D01*
X360206Y404346D01*
X360135Y404258D01*
X360060Y404172D01*
X359983Y404089D01*
X359903Y404009D01*
X359820Y403932D01*
X359734Y403857D01*
X359646Y403786D01*
X359556Y403718D01*
X359463Y403653D01*
X359368Y403591D01*
X359271Y403533D01*
X359172Y403478D01*
X359071Y403427D01*
X358968Y403379D01*
X358864Y403334D01*
X358758Y403294D01*
X358651Y403257D01*
X358543Y403224D01*
X358433Y403194D01*
X358323Y403169D01*
X358212Y403147D01*
X358100Y403130D01*
X357987Y403116D01*
X357874Y403106D01*
X357761Y403100D01*
X357648Y403098D01*
X357535Y403100D01*
X357422Y403106D01*
X357309Y403116D01*
X357196Y403130D01*
X357084Y403147D01*
X356973Y403169D01*
X356863Y403194D01*
X356753Y403224D01*
X356645Y403257D01*
X356538Y403294D01*
X356432Y403334D01*
X356328Y403379D01*
X356225Y403427D01*
X356124Y403478D01*
X356025Y403533D01*
X355928Y403591D01*
X355833Y403653D01*
X355740Y403718D01*
X355650Y403786D01*
X355562Y403857D01*
X355476Y403932D01*
X355393Y404009D01*
X355313Y404089D01*
X355236Y404172D01*
X355161Y404258D01*
X355090Y404346D01*
X355022Y404436D01*
X354957Y404529D01*
X354895Y404624D01*
X354837Y404721D01*
X354782Y404820D01*
X354731Y404921D01*
X354683Y405024D01*
X354638Y405128D01*
X354598Y405234D01*
X354561Y405341D01*
X354528Y405449D01*
X354498Y405559D01*
X354473Y405669D01*
X354451Y405780D01*
X354434Y405892D01*
X354420Y406005D01*
X354410Y406118D01*
X354404Y406231D01*
X354402Y406344D01*
X359595Y405694D02*
X362192Y403098D01*
X365546Y409589D02*
X369441Y409589D01*
X369540Y409587D01*
X369640Y409581D01*
X369739Y409572D01*
X369837Y409559D01*
X369935Y409542D01*
X370033Y409521D01*
X370129Y409496D01*
X370224Y409468D01*
X370318Y409436D01*
X370411Y409401D01*
X370503Y409362D01*
X370593Y409319D01*
X370681Y409274D01*
X370768Y409224D01*
X370852Y409172D01*
X370935Y409116D01*
X371015Y409058D01*
X371093Y408996D01*
X371168Y408931D01*
X371241Y408863D01*
X371311Y408793D01*
X371379Y408720D01*
X371444Y408645D01*
X371506Y408567D01*
X371564Y408487D01*
X371620Y408404D01*
X371672Y408320D01*
X371722Y408233D01*
X371767Y408145D01*
X371810Y408055D01*
X371849Y407963D01*
X371884Y407870D01*
X371916Y407776D01*
X371944Y407681D01*
X371969Y407585D01*
X371990Y407487D01*
X372007Y407389D01*
X372020Y407291D01*
X372029Y407192D01*
X372035Y407092D01*
X372037Y406993D01*
X372038Y406993D02*
X372038Y406344D01*
X372036Y406231D01*
X372030Y406118D01*
X372020Y406005D01*
X372006Y405892D01*
X371989Y405780D01*
X371967Y405669D01*
X371942Y405559D01*
X371912Y405449D01*
X371879Y405341D01*
X371842Y405234D01*
X371802Y405128D01*
X371757Y405024D01*
X371709Y404921D01*
X371658Y404820D01*
X371603Y404721D01*
X371545Y404624D01*
X371483Y404529D01*
X371418Y404436D01*
X371350Y404346D01*
X371279Y404258D01*
X371204Y404172D01*
X371127Y404089D01*
X371047Y404009D01*
X370964Y403932D01*
X370878Y403857D01*
X370790Y403786D01*
X370700Y403718D01*
X370607Y403653D01*
X370512Y403591D01*
X370415Y403533D01*
X370316Y403478D01*
X370215Y403427D01*
X370112Y403379D01*
X370008Y403334D01*
X369902Y403294D01*
X369795Y403257D01*
X369687Y403224D01*
X369577Y403194D01*
X369467Y403169D01*
X369356Y403147D01*
X369244Y403130D01*
X369131Y403116D01*
X369018Y403106D01*
X368905Y403100D01*
X368792Y403098D01*
X368679Y403100D01*
X368566Y403106D01*
X368453Y403116D01*
X368340Y403130D01*
X368228Y403147D01*
X368117Y403169D01*
X368007Y403194D01*
X367897Y403224D01*
X367789Y403257D01*
X367682Y403294D01*
X367576Y403334D01*
X367472Y403379D01*
X367369Y403427D01*
X367268Y403478D01*
X367169Y403533D01*
X367072Y403591D01*
X366977Y403653D01*
X366884Y403718D01*
X366794Y403786D01*
X366706Y403857D01*
X366620Y403932D01*
X366537Y404009D01*
X366457Y404089D01*
X366380Y404172D01*
X366305Y404258D01*
X366234Y404346D01*
X366166Y404436D01*
X366101Y404529D01*
X366039Y404624D01*
X365981Y404721D01*
X365926Y404820D01*
X365875Y404921D01*
X365827Y405024D01*
X365782Y405128D01*
X365742Y405234D01*
X365705Y405341D01*
X365672Y405449D01*
X365642Y405559D01*
X365617Y405669D01*
X365595Y405780D01*
X365578Y405892D01*
X365564Y406005D01*
X365554Y406118D01*
X365548Y406231D01*
X365546Y406344D01*
X365546Y409589D01*
X365548Y409732D01*
X365554Y409875D01*
X365564Y410018D01*
X365578Y410160D01*
X365595Y410302D01*
X365617Y410444D01*
X365642Y410585D01*
X365672Y410725D01*
X365705Y410864D01*
X365742Y411002D01*
X365783Y411139D01*
X365827Y411275D01*
X365876Y411410D01*
X365928Y411543D01*
X365983Y411675D01*
X366043Y411805D01*
X366106Y411934D01*
X366172Y412061D01*
X366242Y412185D01*
X366315Y412308D01*
X366392Y412429D01*
X366472Y412548D01*
X366555Y412664D01*
X366641Y412779D01*
X366730Y412890D01*
X366823Y413000D01*
X366918Y413106D01*
X367017Y413210D01*
X367118Y413311D01*
X367222Y413410D01*
X367328Y413505D01*
X367438Y413598D01*
X367549Y413687D01*
X367664Y413773D01*
X367780Y413856D01*
X367899Y413936D01*
X368020Y414013D01*
X368142Y414086D01*
X368267Y414156D01*
X368394Y414222D01*
X368523Y414285D01*
X368653Y414345D01*
X368785Y414400D01*
X368918Y414452D01*
X369053Y414501D01*
X369189Y414545D01*
X369326Y414586D01*
X369464Y414623D01*
X369603Y414656D01*
X369743Y414686D01*
X369884Y414711D01*
X370026Y414733D01*
X370168Y414750D01*
X370310Y414764D01*
X370453Y414774D01*
X370596Y414780D01*
X370739Y414782D01*
D14*
X156210Y750570D02*
X156310Y750572D01*
X156409Y750578D01*
X156509Y750588D01*
X156607Y750601D01*
X156706Y750619D01*
X156803Y750640D01*
X156899Y750665D01*
X156995Y750694D01*
X157089Y750727D01*
X157182Y750763D01*
X157273Y750803D01*
X157363Y750847D01*
X157451Y750894D01*
X157537Y750944D01*
X157621Y750998D01*
X157703Y751055D01*
X157782Y751115D01*
X157860Y751179D01*
X157934Y751245D01*
X158006Y751314D01*
X158075Y751386D01*
X158141Y751460D01*
X158205Y751538D01*
X158265Y751617D01*
X158322Y751699D01*
X158376Y751783D01*
X158426Y751869D01*
X158473Y751957D01*
X158517Y752047D01*
X158557Y752138D01*
X158593Y752231D01*
X158626Y752325D01*
X158655Y752421D01*
X158680Y752517D01*
X158701Y752614D01*
X158719Y752713D01*
X158732Y752811D01*
X158742Y752911D01*
X158748Y753010D01*
X158750Y753110D01*
X158750Y770890D02*
X158748Y770990D01*
X158742Y771089D01*
X158732Y771189D01*
X158719Y771287D01*
X158701Y771386D01*
X158680Y771483D01*
X158655Y771579D01*
X158626Y771675D01*
X158593Y771769D01*
X158557Y771862D01*
X158517Y771953D01*
X158473Y772043D01*
X158426Y772131D01*
X158376Y772217D01*
X158322Y772301D01*
X158265Y772383D01*
X158205Y772462D01*
X158141Y772540D01*
X158075Y772614D01*
X158006Y772686D01*
X157934Y772755D01*
X157860Y772821D01*
X157782Y772885D01*
X157703Y772945D01*
X157621Y773002D01*
X157537Y773056D01*
X157451Y773106D01*
X157363Y773153D01*
X157273Y773197D01*
X157182Y773237D01*
X157089Y773273D01*
X156995Y773306D01*
X156899Y773335D01*
X156803Y773360D01*
X156706Y773381D01*
X156607Y773399D01*
X156509Y773412D01*
X156409Y773422D01*
X156310Y773428D01*
X156210Y773430D01*
X97790Y773430D02*
X97690Y773428D01*
X97591Y773422D01*
X97491Y773412D01*
X97393Y773399D01*
X97294Y773381D01*
X97197Y773360D01*
X97101Y773335D01*
X97005Y773306D01*
X96911Y773273D01*
X96818Y773237D01*
X96727Y773197D01*
X96637Y773153D01*
X96549Y773106D01*
X96463Y773056D01*
X96379Y773002D01*
X96297Y772945D01*
X96218Y772885D01*
X96140Y772821D01*
X96066Y772755D01*
X95994Y772686D01*
X95925Y772614D01*
X95859Y772540D01*
X95795Y772462D01*
X95735Y772383D01*
X95678Y772301D01*
X95624Y772217D01*
X95574Y772131D01*
X95527Y772043D01*
X95483Y771953D01*
X95443Y771862D01*
X95407Y771769D01*
X95374Y771675D01*
X95345Y771579D01*
X95320Y771483D01*
X95299Y771386D01*
X95281Y771287D01*
X95268Y771189D01*
X95258Y771089D01*
X95252Y770990D01*
X95250Y770890D01*
X95250Y753110D02*
X95252Y753010D01*
X95258Y752911D01*
X95268Y752811D01*
X95281Y752713D01*
X95299Y752614D01*
X95320Y752517D01*
X95345Y752421D01*
X95374Y752325D01*
X95407Y752231D01*
X95443Y752138D01*
X95483Y752047D01*
X95527Y751957D01*
X95574Y751869D01*
X95624Y751783D01*
X95678Y751699D01*
X95735Y751617D01*
X95795Y751538D01*
X95859Y751460D01*
X95925Y751386D01*
X95994Y751314D01*
X96066Y751245D01*
X96140Y751179D01*
X96218Y751115D01*
X96297Y751055D01*
X96379Y750998D01*
X96463Y750944D01*
X96549Y750894D01*
X96637Y750847D01*
X96727Y750803D01*
X96818Y750763D01*
X96911Y750727D01*
X97005Y750694D01*
X97101Y750665D01*
X97197Y750640D01*
X97294Y750619D01*
X97393Y750601D01*
X97491Y750588D01*
X97591Y750578D01*
X97690Y750572D01*
X97790Y750570D01*
X158750Y753110D02*
X158750Y770890D01*
X156210Y750570D02*
X152400Y750570D01*
X151130Y751840D01*
X152400Y773430D02*
X156210Y773430D01*
X152400Y773430D02*
X151130Y772160D01*
X102870Y751840D02*
X101600Y750570D01*
X102870Y751840D02*
X151130Y751840D01*
X102870Y772160D02*
X101600Y773430D01*
X102870Y772160D02*
X151130Y772160D01*
X101600Y750570D02*
X97790Y750570D01*
X97790Y773430D02*
X101600Y773430D01*
X95250Y770890D02*
X95250Y753110D01*
D15*
X86360Y762000D02*
X69850Y762000D01*
X167640Y762000D02*
X184150Y762000D01*
D16*
X140418Y747395D02*
X140418Y735965D01*
X140418Y747395D02*
X143593Y747395D01*
X143704Y747393D01*
X143814Y747387D01*
X143925Y747378D01*
X144035Y747364D01*
X144144Y747347D01*
X144253Y747326D01*
X144361Y747301D01*
X144468Y747272D01*
X144574Y747240D01*
X144679Y747204D01*
X144782Y747164D01*
X144884Y747121D01*
X144985Y747074D01*
X145084Y747023D01*
X145181Y746970D01*
X145275Y746913D01*
X145368Y746852D01*
X145459Y746789D01*
X145548Y746722D01*
X145634Y746652D01*
X145717Y746579D01*
X145799Y746504D01*
X145877Y746426D01*
X145952Y746344D01*
X146025Y746261D01*
X146095Y746175D01*
X146162Y746086D01*
X146225Y745995D01*
X146286Y745902D01*
X146343Y745807D01*
X146396Y745711D01*
X146447Y745612D01*
X146494Y745511D01*
X146537Y745409D01*
X146577Y745306D01*
X146613Y745201D01*
X146645Y745095D01*
X146674Y744988D01*
X146699Y744880D01*
X146720Y744771D01*
X146737Y744662D01*
X146751Y744552D01*
X146760Y744441D01*
X146766Y744331D01*
X146768Y744220D01*
X146766Y744109D01*
X146760Y743999D01*
X146751Y743888D01*
X146737Y743778D01*
X146720Y743669D01*
X146699Y743560D01*
X146674Y743452D01*
X146645Y743345D01*
X146613Y743239D01*
X146577Y743134D01*
X146537Y743031D01*
X146494Y742929D01*
X146447Y742828D01*
X146396Y742729D01*
X146343Y742633D01*
X146286Y742538D01*
X146225Y742445D01*
X146162Y742354D01*
X146095Y742265D01*
X146025Y742179D01*
X145952Y742096D01*
X145877Y742014D01*
X145799Y741936D01*
X145717Y741861D01*
X145634Y741788D01*
X145548Y741718D01*
X145459Y741651D01*
X145368Y741588D01*
X145275Y741527D01*
X145180Y741470D01*
X145084Y741417D01*
X144985Y741366D01*
X144884Y741319D01*
X144782Y741276D01*
X144679Y741236D01*
X144574Y741200D01*
X144468Y741168D01*
X144361Y741139D01*
X144253Y741114D01*
X144144Y741093D01*
X144035Y741076D01*
X143925Y741062D01*
X143814Y741053D01*
X143704Y741047D01*
X143593Y741045D01*
X140418Y741045D01*
X144228Y741045D02*
X146768Y735965D01*
X151765Y744855D02*
X154940Y747395D01*
X154940Y735965D01*
X151765Y735965D02*
X158115Y735965D01*
D17*
X90932Y762000D03*
X163068Y762000D03*
X65532Y762000D03*
X188468Y762000D03*
D14*
X158750Y715010D02*
X158748Y714910D01*
X158742Y714811D01*
X158732Y714711D01*
X158719Y714613D01*
X158701Y714514D01*
X158680Y714417D01*
X158655Y714321D01*
X158626Y714225D01*
X158593Y714131D01*
X158557Y714038D01*
X158517Y713947D01*
X158473Y713857D01*
X158426Y713769D01*
X158376Y713683D01*
X158322Y713599D01*
X158265Y713517D01*
X158205Y713438D01*
X158141Y713360D01*
X158075Y713286D01*
X158006Y713214D01*
X157934Y713145D01*
X157860Y713079D01*
X157782Y713015D01*
X157703Y712955D01*
X157621Y712898D01*
X157537Y712844D01*
X157451Y712794D01*
X157363Y712747D01*
X157273Y712703D01*
X157182Y712663D01*
X157089Y712627D01*
X156995Y712594D01*
X156899Y712565D01*
X156803Y712540D01*
X156706Y712519D01*
X156607Y712501D01*
X156509Y712488D01*
X156409Y712478D01*
X156310Y712472D01*
X156210Y712470D01*
X158750Y732790D02*
X158748Y732890D01*
X158742Y732989D01*
X158732Y733089D01*
X158719Y733187D01*
X158701Y733286D01*
X158680Y733383D01*
X158655Y733479D01*
X158626Y733575D01*
X158593Y733669D01*
X158557Y733762D01*
X158517Y733853D01*
X158473Y733943D01*
X158426Y734031D01*
X158376Y734117D01*
X158322Y734201D01*
X158265Y734283D01*
X158205Y734362D01*
X158141Y734440D01*
X158075Y734514D01*
X158006Y734586D01*
X157934Y734655D01*
X157860Y734721D01*
X157782Y734785D01*
X157703Y734845D01*
X157621Y734902D01*
X157537Y734956D01*
X157451Y735006D01*
X157363Y735053D01*
X157273Y735097D01*
X157182Y735137D01*
X157089Y735173D01*
X156995Y735206D01*
X156899Y735235D01*
X156803Y735260D01*
X156706Y735281D01*
X156607Y735299D01*
X156509Y735312D01*
X156409Y735322D01*
X156310Y735328D01*
X156210Y735330D01*
X97790Y735330D02*
X97690Y735328D01*
X97591Y735322D01*
X97491Y735312D01*
X97393Y735299D01*
X97294Y735281D01*
X97197Y735260D01*
X97101Y735235D01*
X97005Y735206D01*
X96911Y735173D01*
X96818Y735137D01*
X96727Y735097D01*
X96637Y735053D01*
X96549Y735006D01*
X96463Y734956D01*
X96379Y734902D01*
X96297Y734845D01*
X96218Y734785D01*
X96140Y734721D01*
X96066Y734655D01*
X95994Y734586D01*
X95925Y734514D01*
X95859Y734440D01*
X95795Y734362D01*
X95735Y734283D01*
X95678Y734201D01*
X95624Y734117D01*
X95574Y734031D01*
X95527Y733943D01*
X95483Y733853D01*
X95443Y733762D01*
X95407Y733669D01*
X95374Y733575D01*
X95345Y733479D01*
X95320Y733383D01*
X95299Y733286D01*
X95281Y733187D01*
X95268Y733089D01*
X95258Y732989D01*
X95252Y732890D01*
X95250Y732790D01*
X95250Y715010D02*
X95252Y714910D01*
X95258Y714811D01*
X95268Y714711D01*
X95281Y714613D01*
X95299Y714514D01*
X95320Y714417D01*
X95345Y714321D01*
X95374Y714225D01*
X95407Y714131D01*
X95443Y714038D01*
X95483Y713947D01*
X95527Y713857D01*
X95574Y713769D01*
X95624Y713683D01*
X95678Y713599D01*
X95735Y713517D01*
X95795Y713438D01*
X95859Y713360D01*
X95925Y713286D01*
X95994Y713214D01*
X96066Y713145D01*
X96140Y713079D01*
X96218Y713015D01*
X96297Y712955D01*
X96379Y712898D01*
X96463Y712844D01*
X96549Y712794D01*
X96637Y712747D01*
X96727Y712703D01*
X96818Y712663D01*
X96911Y712627D01*
X97005Y712594D01*
X97101Y712565D01*
X97197Y712540D01*
X97294Y712519D01*
X97393Y712501D01*
X97491Y712488D01*
X97591Y712478D01*
X97690Y712472D01*
X97790Y712470D01*
X158750Y715010D02*
X158750Y732790D01*
X156210Y712470D02*
X152400Y712470D01*
X151130Y713740D01*
X152400Y735330D02*
X156210Y735330D01*
X152400Y735330D02*
X151130Y734060D01*
X102870Y713740D02*
X101600Y712470D01*
X102870Y713740D02*
X151130Y713740D01*
X102870Y734060D02*
X101600Y735330D01*
X102870Y734060D02*
X151130Y734060D01*
X101600Y712470D02*
X97790Y712470D01*
X97790Y735330D02*
X101600Y735330D01*
X95250Y732790D02*
X95250Y715010D01*
D15*
X86360Y723900D02*
X69850Y723900D01*
X167640Y723900D02*
X184150Y723900D01*
D16*
X140418Y709295D02*
X140418Y697865D01*
X140418Y709295D02*
X143593Y709295D01*
X143704Y709293D01*
X143814Y709287D01*
X143925Y709278D01*
X144035Y709264D01*
X144144Y709247D01*
X144253Y709226D01*
X144361Y709201D01*
X144468Y709172D01*
X144574Y709140D01*
X144679Y709104D01*
X144782Y709064D01*
X144884Y709021D01*
X144985Y708974D01*
X145084Y708923D01*
X145181Y708870D01*
X145275Y708813D01*
X145368Y708752D01*
X145459Y708689D01*
X145548Y708622D01*
X145634Y708552D01*
X145717Y708479D01*
X145799Y708404D01*
X145877Y708326D01*
X145952Y708244D01*
X146025Y708161D01*
X146095Y708075D01*
X146162Y707986D01*
X146225Y707895D01*
X146286Y707802D01*
X146343Y707707D01*
X146396Y707611D01*
X146447Y707512D01*
X146494Y707411D01*
X146537Y707309D01*
X146577Y707206D01*
X146613Y707101D01*
X146645Y706995D01*
X146674Y706888D01*
X146699Y706780D01*
X146720Y706671D01*
X146737Y706562D01*
X146751Y706452D01*
X146760Y706341D01*
X146766Y706231D01*
X146768Y706120D01*
X146766Y706009D01*
X146760Y705899D01*
X146751Y705788D01*
X146737Y705678D01*
X146720Y705569D01*
X146699Y705460D01*
X146674Y705352D01*
X146645Y705245D01*
X146613Y705139D01*
X146577Y705034D01*
X146537Y704931D01*
X146494Y704829D01*
X146447Y704728D01*
X146396Y704629D01*
X146343Y704533D01*
X146286Y704438D01*
X146225Y704345D01*
X146162Y704254D01*
X146095Y704165D01*
X146025Y704079D01*
X145952Y703996D01*
X145877Y703914D01*
X145799Y703836D01*
X145717Y703761D01*
X145634Y703688D01*
X145548Y703618D01*
X145459Y703551D01*
X145368Y703488D01*
X145275Y703427D01*
X145180Y703370D01*
X145084Y703317D01*
X144985Y703266D01*
X144884Y703219D01*
X144782Y703176D01*
X144679Y703136D01*
X144574Y703100D01*
X144468Y703068D01*
X144361Y703039D01*
X144253Y703014D01*
X144144Y702993D01*
X144035Y702976D01*
X143925Y702962D01*
X143814Y702953D01*
X143704Y702947D01*
X143593Y702945D01*
X140418Y702945D01*
X144228Y702945D02*
X146768Y697865D01*
X158116Y706438D02*
X158114Y706542D01*
X158108Y706647D01*
X158099Y706751D01*
X158086Y706854D01*
X158068Y706957D01*
X158048Y707059D01*
X158023Y707161D01*
X157995Y707261D01*
X157963Y707361D01*
X157927Y707459D01*
X157888Y707556D01*
X157846Y707651D01*
X157800Y707745D01*
X157750Y707837D01*
X157698Y707927D01*
X157642Y708015D01*
X157582Y708101D01*
X157520Y708185D01*
X157455Y708266D01*
X157387Y708345D01*
X157315Y708422D01*
X157242Y708495D01*
X157165Y708567D01*
X157086Y708635D01*
X157005Y708700D01*
X156921Y708762D01*
X156835Y708822D01*
X156747Y708878D01*
X156657Y708930D01*
X156565Y708980D01*
X156471Y709026D01*
X156376Y709068D01*
X156279Y709107D01*
X156181Y709143D01*
X156081Y709175D01*
X155981Y709203D01*
X155879Y709228D01*
X155777Y709248D01*
X155674Y709266D01*
X155571Y709279D01*
X155467Y709288D01*
X155362Y709294D01*
X155258Y709296D01*
X155258Y709295D02*
X155140Y709293D01*
X155021Y709287D01*
X154903Y709278D01*
X154786Y709265D01*
X154669Y709247D01*
X154552Y709227D01*
X154436Y709202D01*
X154321Y709174D01*
X154208Y709141D01*
X154095Y709106D01*
X153983Y709066D01*
X153873Y709024D01*
X153764Y708977D01*
X153656Y708927D01*
X153551Y708874D01*
X153447Y708817D01*
X153345Y708757D01*
X153245Y708694D01*
X153147Y708627D01*
X153051Y708558D01*
X152958Y708485D01*
X152867Y708409D01*
X152778Y708331D01*
X152692Y708249D01*
X152609Y708165D01*
X152528Y708079D01*
X152451Y707989D01*
X152376Y707898D01*
X152304Y707804D01*
X152235Y707707D01*
X152170Y707609D01*
X152107Y707508D01*
X152048Y707405D01*
X151992Y707301D01*
X151940Y707195D01*
X151891Y707087D01*
X151846Y706978D01*
X151804Y706867D01*
X151766Y706755D01*
X157163Y704216D02*
X157239Y704291D01*
X157314Y704370D01*
X157385Y704451D01*
X157454Y704535D01*
X157519Y704621D01*
X157581Y704709D01*
X157641Y704799D01*
X157697Y704891D01*
X157750Y704986D01*
X157799Y705082D01*
X157845Y705180D01*
X157888Y705279D01*
X157927Y705380D01*
X157962Y705482D01*
X157994Y705585D01*
X158022Y705689D01*
X158047Y705794D01*
X158068Y705901D01*
X158085Y706007D01*
X158098Y706114D01*
X158107Y706222D01*
X158113Y706330D01*
X158115Y706438D01*
X157163Y704215D02*
X151765Y697865D01*
X158115Y697865D01*
D17*
X90932Y723900D03*
X163068Y723900D03*
X65532Y723900D03*
X188468Y723900D03*
D14*
X158750Y676910D02*
X158748Y676810D01*
X158742Y676711D01*
X158732Y676611D01*
X158719Y676513D01*
X158701Y676414D01*
X158680Y676317D01*
X158655Y676221D01*
X158626Y676125D01*
X158593Y676031D01*
X158557Y675938D01*
X158517Y675847D01*
X158473Y675757D01*
X158426Y675669D01*
X158376Y675583D01*
X158322Y675499D01*
X158265Y675417D01*
X158205Y675338D01*
X158141Y675260D01*
X158075Y675186D01*
X158006Y675114D01*
X157934Y675045D01*
X157860Y674979D01*
X157782Y674915D01*
X157703Y674855D01*
X157621Y674798D01*
X157537Y674744D01*
X157451Y674694D01*
X157363Y674647D01*
X157273Y674603D01*
X157182Y674563D01*
X157089Y674527D01*
X156995Y674494D01*
X156899Y674465D01*
X156803Y674440D01*
X156706Y674419D01*
X156607Y674401D01*
X156509Y674388D01*
X156409Y674378D01*
X156310Y674372D01*
X156210Y674370D01*
X158750Y694690D02*
X158748Y694790D01*
X158742Y694889D01*
X158732Y694989D01*
X158719Y695087D01*
X158701Y695186D01*
X158680Y695283D01*
X158655Y695379D01*
X158626Y695475D01*
X158593Y695569D01*
X158557Y695662D01*
X158517Y695753D01*
X158473Y695843D01*
X158426Y695931D01*
X158376Y696017D01*
X158322Y696101D01*
X158265Y696183D01*
X158205Y696262D01*
X158141Y696340D01*
X158075Y696414D01*
X158006Y696486D01*
X157934Y696555D01*
X157860Y696621D01*
X157782Y696685D01*
X157703Y696745D01*
X157621Y696802D01*
X157537Y696856D01*
X157451Y696906D01*
X157363Y696953D01*
X157273Y696997D01*
X157182Y697037D01*
X157089Y697073D01*
X156995Y697106D01*
X156899Y697135D01*
X156803Y697160D01*
X156706Y697181D01*
X156607Y697199D01*
X156509Y697212D01*
X156409Y697222D01*
X156310Y697228D01*
X156210Y697230D01*
X97790Y697230D02*
X97690Y697228D01*
X97591Y697222D01*
X97491Y697212D01*
X97393Y697199D01*
X97294Y697181D01*
X97197Y697160D01*
X97101Y697135D01*
X97005Y697106D01*
X96911Y697073D01*
X96818Y697037D01*
X96727Y696997D01*
X96637Y696953D01*
X96549Y696906D01*
X96463Y696856D01*
X96379Y696802D01*
X96297Y696745D01*
X96218Y696685D01*
X96140Y696621D01*
X96066Y696555D01*
X95994Y696486D01*
X95925Y696414D01*
X95859Y696340D01*
X95795Y696262D01*
X95735Y696183D01*
X95678Y696101D01*
X95624Y696017D01*
X95574Y695931D01*
X95527Y695843D01*
X95483Y695753D01*
X95443Y695662D01*
X95407Y695569D01*
X95374Y695475D01*
X95345Y695379D01*
X95320Y695283D01*
X95299Y695186D01*
X95281Y695087D01*
X95268Y694989D01*
X95258Y694889D01*
X95252Y694790D01*
X95250Y694690D01*
X95250Y676910D02*
X95252Y676810D01*
X95258Y676711D01*
X95268Y676611D01*
X95281Y676513D01*
X95299Y676414D01*
X95320Y676317D01*
X95345Y676221D01*
X95374Y676125D01*
X95407Y676031D01*
X95443Y675938D01*
X95483Y675847D01*
X95527Y675757D01*
X95574Y675669D01*
X95624Y675583D01*
X95678Y675499D01*
X95735Y675417D01*
X95795Y675338D01*
X95859Y675260D01*
X95925Y675186D01*
X95994Y675114D01*
X96066Y675045D01*
X96140Y674979D01*
X96218Y674915D01*
X96297Y674855D01*
X96379Y674798D01*
X96463Y674744D01*
X96549Y674694D01*
X96637Y674647D01*
X96727Y674603D01*
X96818Y674563D01*
X96911Y674527D01*
X97005Y674494D01*
X97101Y674465D01*
X97197Y674440D01*
X97294Y674419D01*
X97393Y674401D01*
X97491Y674388D01*
X97591Y674378D01*
X97690Y674372D01*
X97790Y674370D01*
X158750Y676910D02*
X158750Y694690D01*
X156210Y674370D02*
X152400Y674370D01*
X151130Y675640D01*
X152400Y697230D02*
X156210Y697230D01*
X152400Y697230D02*
X151130Y695960D01*
X102870Y675640D02*
X101600Y674370D01*
X102870Y675640D02*
X151130Y675640D01*
X102870Y695960D02*
X101600Y697230D01*
X102870Y695960D02*
X151130Y695960D01*
X101600Y674370D02*
X97790Y674370D01*
X97790Y697230D02*
X101600Y697230D01*
X95250Y694690D02*
X95250Y676910D01*
D15*
X86360Y685800D02*
X69850Y685800D01*
X167640Y685800D02*
X184150Y685800D01*
D16*
X140418Y671195D02*
X140418Y659765D01*
X140418Y671195D02*
X143593Y671195D01*
X143704Y671193D01*
X143814Y671187D01*
X143925Y671178D01*
X144035Y671164D01*
X144144Y671147D01*
X144253Y671126D01*
X144361Y671101D01*
X144468Y671072D01*
X144574Y671040D01*
X144679Y671004D01*
X144782Y670964D01*
X144884Y670921D01*
X144985Y670874D01*
X145084Y670823D01*
X145181Y670770D01*
X145275Y670713D01*
X145368Y670652D01*
X145459Y670589D01*
X145548Y670522D01*
X145634Y670452D01*
X145717Y670379D01*
X145799Y670304D01*
X145877Y670226D01*
X145952Y670144D01*
X146025Y670061D01*
X146095Y669975D01*
X146162Y669886D01*
X146225Y669795D01*
X146286Y669702D01*
X146343Y669607D01*
X146396Y669511D01*
X146447Y669412D01*
X146494Y669311D01*
X146537Y669209D01*
X146577Y669106D01*
X146613Y669001D01*
X146645Y668895D01*
X146674Y668788D01*
X146699Y668680D01*
X146720Y668571D01*
X146737Y668462D01*
X146751Y668352D01*
X146760Y668241D01*
X146766Y668131D01*
X146768Y668020D01*
X146766Y667909D01*
X146760Y667799D01*
X146751Y667688D01*
X146737Y667578D01*
X146720Y667469D01*
X146699Y667360D01*
X146674Y667252D01*
X146645Y667145D01*
X146613Y667039D01*
X146577Y666934D01*
X146537Y666831D01*
X146494Y666729D01*
X146447Y666628D01*
X146396Y666529D01*
X146343Y666433D01*
X146286Y666338D01*
X146225Y666245D01*
X146162Y666154D01*
X146095Y666065D01*
X146025Y665979D01*
X145952Y665896D01*
X145877Y665814D01*
X145799Y665736D01*
X145717Y665661D01*
X145634Y665588D01*
X145548Y665518D01*
X145459Y665451D01*
X145368Y665388D01*
X145275Y665327D01*
X145180Y665270D01*
X145084Y665217D01*
X144985Y665166D01*
X144884Y665119D01*
X144782Y665076D01*
X144679Y665036D01*
X144574Y665000D01*
X144468Y664968D01*
X144361Y664939D01*
X144253Y664914D01*
X144144Y664893D01*
X144035Y664876D01*
X143925Y664862D01*
X143814Y664853D01*
X143704Y664847D01*
X143593Y664845D01*
X140418Y664845D01*
X144228Y664845D02*
X146768Y659765D01*
X151765Y659765D02*
X154940Y659765D01*
X155051Y659767D01*
X155161Y659773D01*
X155272Y659782D01*
X155382Y659796D01*
X155491Y659813D01*
X155600Y659834D01*
X155708Y659859D01*
X155815Y659888D01*
X155921Y659920D01*
X156026Y659956D01*
X156129Y659996D01*
X156231Y660039D01*
X156332Y660086D01*
X156431Y660137D01*
X156527Y660190D01*
X156622Y660247D01*
X156715Y660308D01*
X156806Y660371D01*
X156895Y660438D01*
X156981Y660508D01*
X157064Y660581D01*
X157146Y660656D01*
X157224Y660734D01*
X157299Y660816D01*
X157372Y660899D01*
X157442Y660985D01*
X157509Y661074D01*
X157572Y661165D01*
X157633Y661258D01*
X157690Y661353D01*
X157743Y661449D01*
X157794Y661548D01*
X157841Y661649D01*
X157884Y661751D01*
X157924Y661854D01*
X157960Y661959D01*
X157992Y662065D01*
X158021Y662172D01*
X158046Y662280D01*
X158067Y662389D01*
X158084Y662498D01*
X158098Y662608D01*
X158107Y662719D01*
X158113Y662829D01*
X158115Y662940D01*
X158113Y663051D01*
X158107Y663161D01*
X158098Y663272D01*
X158084Y663382D01*
X158067Y663491D01*
X158046Y663600D01*
X158021Y663708D01*
X157992Y663815D01*
X157960Y663921D01*
X157924Y664026D01*
X157884Y664129D01*
X157841Y664231D01*
X157794Y664332D01*
X157743Y664431D01*
X157690Y664527D01*
X157633Y664622D01*
X157572Y664715D01*
X157509Y664806D01*
X157442Y664895D01*
X157372Y664981D01*
X157299Y665064D01*
X157224Y665146D01*
X157146Y665224D01*
X157064Y665299D01*
X156981Y665372D01*
X156895Y665442D01*
X156806Y665509D01*
X156715Y665572D01*
X156622Y665633D01*
X156528Y665690D01*
X156431Y665743D01*
X156332Y665794D01*
X156231Y665841D01*
X156129Y665884D01*
X156026Y665924D01*
X155921Y665960D01*
X155815Y665992D01*
X155708Y666021D01*
X155600Y666046D01*
X155491Y666067D01*
X155382Y666084D01*
X155272Y666098D01*
X155161Y666107D01*
X155051Y666113D01*
X154940Y666115D01*
X155575Y671195D02*
X151765Y671195D01*
X155575Y671195D02*
X155675Y671193D01*
X155774Y671187D01*
X155874Y671177D01*
X155972Y671164D01*
X156071Y671146D01*
X156168Y671125D01*
X156264Y671100D01*
X156360Y671071D01*
X156454Y671038D01*
X156547Y671002D01*
X156638Y670962D01*
X156728Y670918D01*
X156816Y670871D01*
X156902Y670821D01*
X156986Y670767D01*
X157068Y670710D01*
X157147Y670650D01*
X157225Y670586D01*
X157299Y670520D01*
X157371Y670451D01*
X157440Y670379D01*
X157506Y670305D01*
X157570Y670227D01*
X157630Y670148D01*
X157687Y670066D01*
X157741Y669982D01*
X157791Y669896D01*
X157838Y669808D01*
X157882Y669718D01*
X157922Y669627D01*
X157958Y669534D01*
X157991Y669440D01*
X158020Y669344D01*
X158045Y669248D01*
X158066Y669151D01*
X158084Y669052D01*
X158097Y668954D01*
X158107Y668854D01*
X158113Y668755D01*
X158115Y668655D01*
X158113Y668555D01*
X158107Y668456D01*
X158097Y668356D01*
X158084Y668258D01*
X158066Y668159D01*
X158045Y668062D01*
X158020Y667966D01*
X157991Y667870D01*
X157958Y667776D01*
X157922Y667683D01*
X157882Y667592D01*
X157838Y667502D01*
X157791Y667414D01*
X157741Y667328D01*
X157687Y667244D01*
X157630Y667162D01*
X157570Y667083D01*
X157506Y667005D01*
X157440Y666931D01*
X157371Y666859D01*
X157299Y666790D01*
X157225Y666724D01*
X157147Y666660D01*
X157068Y666600D01*
X156986Y666543D01*
X156902Y666489D01*
X156816Y666439D01*
X156728Y666392D01*
X156638Y666348D01*
X156547Y666308D01*
X156454Y666272D01*
X156360Y666239D01*
X156264Y666210D01*
X156168Y666185D01*
X156071Y666164D01*
X155972Y666146D01*
X155874Y666133D01*
X155774Y666123D01*
X155675Y666117D01*
X155575Y666115D01*
X153035Y666115D01*
D17*
X90932Y685800D03*
X163068Y685800D03*
X65532Y685800D03*
X188468Y685800D03*
D14*
X158750Y638810D02*
X158748Y638710D01*
X158742Y638611D01*
X158732Y638511D01*
X158719Y638413D01*
X158701Y638314D01*
X158680Y638217D01*
X158655Y638121D01*
X158626Y638025D01*
X158593Y637931D01*
X158557Y637838D01*
X158517Y637747D01*
X158473Y637657D01*
X158426Y637569D01*
X158376Y637483D01*
X158322Y637399D01*
X158265Y637317D01*
X158205Y637238D01*
X158141Y637160D01*
X158075Y637086D01*
X158006Y637014D01*
X157934Y636945D01*
X157860Y636879D01*
X157782Y636815D01*
X157703Y636755D01*
X157621Y636698D01*
X157537Y636644D01*
X157451Y636594D01*
X157363Y636547D01*
X157273Y636503D01*
X157182Y636463D01*
X157089Y636427D01*
X156995Y636394D01*
X156899Y636365D01*
X156803Y636340D01*
X156706Y636319D01*
X156607Y636301D01*
X156509Y636288D01*
X156409Y636278D01*
X156310Y636272D01*
X156210Y636270D01*
X158750Y656590D02*
X158748Y656690D01*
X158742Y656789D01*
X158732Y656889D01*
X158719Y656987D01*
X158701Y657086D01*
X158680Y657183D01*
X158655Y657279D01*
X158626Y657375D01*
X158593Y657469D01*
X158557Y657562D01*
X158517Y657653D01*
X158473Y657743D01*
X158426Y657831D01*
X158376Y657917D01*
X158322Y658001D01*
X158265Y658083D01*
X158205Y658162D01*
X158141Y658240D01*
X158075Y658314D01*
X158006Y658386D01*
X157934Y658455D01*
X157860Y658521D01*
X157782Y658585D01*
X157703Y658645D01*
X157621Y658702D01*
X157537Y658756D01*
X157451Y658806D01*
X157363Y658853D01*
X157273Y658897D01*
X157182Y658937D01*
X157089Y658973D01*
X156995Y659006D01*
X156899Y659035D01*
X156803Y659060D01*
X156706Y659081D01*
X156607Y659099D01*
X156509Y659112D01*
X156409Y659122D01*
X156310Y659128D01*
X156210Y659130D01*
X97790Y659130D02*
X97690Y659128D01*
X97591Y659122D01*
X97491Y659112D01*
X97393Y659099D01*
X97294Y659081D01*
X97197Y659060D01*
X97101Y659035D01*
X97005Y659006D01*
X96911Y658973D01*
X96818Y658937D01*
X96727Y658897D01*
X96637Y658853D01*
X96549Y658806D01*
X96463Y658756D01*
X96379Y658702D01*
X96297Y658645D01*
X96218Y658585D01*
X96140Y658521D01*
X96066Y658455D01*
X95994Y658386D01*
X95925Y658314D01*
X95859Y658240D01*
X95795Y658162D01*
X95735Y658083D01*
X95678Y658001D01*
X95624Y657917D01*
X95574Y657831D01*
X95527Y657743D01*
X95483Y657653D01*
X95443Y657562D01*
X95407Y657469D01*
X95374Y657375D01*
X95345Y657279D01*
X95320Y657183D01*
X95299Y657086D01*
X95281Y656987D01*
X95268Y656889D01*
X95258Y656789D01*
X95252Y656690D01*
X95250Y656590D01*
X95250Y638810D02*
X95252Y638710D01*
X95258Y638611D01*
X95268Y638511D01*
X95281Y638413D01*
X95299Y638314D01*
X95320Y638217D01*
X95345Y638121D01*
X95374Y638025D01*
X95407Y637931D01*
X95443Y637838D01*
X95483Y637747D01*
X95527Y637657D01*
X95574Y637569D01*
X95624Y637483D01*
X95678Y637399D01*
X95735Y637317D01*
X95795Y637238D01*
X95859Y637160D01*
X95925Y637086D01*
X95994Y637014D01*
X96066Y636945D01*
X96140Y636879D01*
X96218Y636815D01*
X96297Y636755D01*
X96379Y636698D01*
X96463Y636644D01*
X96549Y636594D01*
X96637Y636547D01*
X96727Y636503D01*
X96818Y636463D01*
X96911Y636427D01*
X97005Y636394D01*
X97101Y636365D01*
X97197Y636340D01*
X97294Y636319D01*
X97393Y636301D01*
X97491Y636288D01*
X97591Y636278D01*
X97690Y636272D01*
X97790Y636270D01*
X158750Y638810D02*
X158750Y656590D01*
X156210Y636270D02*
X152400Y636270D01*
X151130Y637540D01*
X152400Y659130D02*
X156210Y659130D01*
X152400Y659130D02*
X151130Y657860D01*
X102870Y637540D02*
X101600Y636270D01*
X102870Y637540D02*
X151130Y637540D01*
X102870Y657860D02*
X101600Y659130D01*
X102870Y657860D02*
X151130Y657860D01*
X101600Y636270D02*
X97790Y636270D01*
X97790Y659130D02*
X101600Y659130D01*
X95250Y656590D02*
X95250Y638810D01*
D15*
X86360Y647700D02*
X69850Y647700D01*
X167640Y647700D02*
X184150Y647700D01*
D16*
X140418Y633095D02*
X140418Y621665D01*
X140418Y633095D02*
X143593Y633095D01*
X143704Y633093D01*
X143814Y633087D01*
X143925Y633078D01*
X144035Y633064D01*
X144144Y633047D01*
X144253Y633026D01*
X144361Y633001D01*
X144468Y632972D01*
X144574Y632940D01*
X144679Y632904D01*
X144782Y632864D01*
X144884Y632821D01*
X144985Y632774D01*
X145084Y632723D01*
X145181Y632670D01*
X145275Y632613D01*
X145368Y632552D01*
X145459Y632489D01*
X145548Y632422D01*
X145634Y632352D01*
X145717Y632279D01*
X145799Y632204D01*
X145877Y632126D01*
X145952Y632044D01*
X146025Y631961D01*
X146095Y631875D01*
X146162Y631786D01*
X146225Y631695D01*
X146286Y631602D01*
X146343Y631507D01*
X146396Y631411D01*
X146447Y631312D01*
X146494Y631211D01*
X146537Y631109D01*
X146577Y631006D01*
X146613Y630901D01*
X146645Y630795D01*
X146674Y630688D01*
X146699Y630580D01*
X146720Y630471D01*
X146737Y630362D01*
X146751Y630252D01*
X146760Y630141D01*
X146766Y630031D01*
X146768Y629920D01*
X146766Y629809D01*
X146760Y629699D01*
X146751Y629588D01*
X146737Y629478D01*
X146720Y629369D01*
X146699Y629260D01*
X146674Y629152D01*
X146645Y629045D01*
X146613Y628939D01*
X146577Y628834D01*
X146537Y628731D01*
X146494Y628629D01*
X146447Y628528D01*
X146396Y628429D01*
X146343Y628333D01*
X146286Y628238D01*
X146225Y628145D01*
X146162Y628054D01*
X146095Y627965D01*
X146025Y627879D01*
X145952Y627796D01*
X145877Y627714D01*
X145799Y627636D01*
X145717Y627561D01*
X145634Y627488D01*
X145548Y627418D01*
X145459Y627351D01*
X145368Y627288D01*
X145275Y627227D01*
X145180Y627170D01*
X145084Y627117D01*
X144985Y627066D01*
X144884Y627019D01*
X144782Y626976D01*
X144679Y626936D01*
X144574Y626900D01*
X144468Y626868D01*
X144361Y626839D01*
X144253Y626814D01*
X144144Y626793D01*
X144035Y626776D01*
X143925Y626762D01*
X143814Y626753D01*
X143704Y626747D01*
X143593Y626745D01*
X140418Y626745D01*
X144228Y626745D02*
X146768Y621665D01*
X151765Y624205D02*
X154305Y633095D01*
X151765Y624205D02*
X158115Y624205D01*
X156210Y626745D02*
X156210Y621665D01*
D17*
X90932Y647700D03*
X163068Y647700D03*
X65532Y647700D03*
X188468Y647700D03*
D14*
X158750Y600710D02*
X158748Y600610D01*
X158742Y600511D01*
X158732Y600411D01*
X158719Y600313D01*
X158701Y600214D01*
X158680Y600117D01*
X158655Y600021D01*
X158626Y599925D01*
X158593Y599831D01*
X158557Y599738D01*
X158517Y599647D01*
X158473Y599557D01*
X158426Y599469D01*
X158376Y599383D01*
X158322Y599299D01*
X158265Y599217D01*
X158205Y599138D01*
X158141Y599060D01*
X158075Y598986D01*
X158006Y598914D01*
X157934Y598845D01*
X157860Y598779D01*
X157782Y598715D01*
X157703Y598655D01*
X157621Y598598D01*
X157537Y598544D01*
X157451Y598494D01*
X157363Y598447D01*
X157273Y598403D01*
X157182Y598363D01*
X157089Y598327D01*
X156995Y598294D01*
X156899Y598265D01*
X156803Y598240D01*
X156706Y598219D01*
X156607Y598201D01*
X156509Y598188D01*
X156409Y598178D01*
X156310Y598172D01*
X156210Y598170D01*
X158750Y618490D02*
X158748Y618590D01*
X158742Y618689D01*
X158732Y618789D01*
X158719Y618887D01*
X158701Y618986D01*
X158680Y619083D01*
X158655Y619179D01*
X158626Y619275D01*
X158593Y619369D01*
X158557Y619462D01*
X158517Y619553D01*
X158473Y619643D01*
X158426Y619731D01*
X158376Y619817D01*
X158322Y619901D01*
X158265Y619983D01*
X158205Y620062D01*
X158141Y620140D01*
X158075Y620214D01*
X158006Y620286D01*
X157934Y620355D01*
X157860Y620421D01*
X157782Y620485D01*
X157703Y620545D01*
X157621Y620602D01*
X157537Y620656D01*
X157451Y620706D01*
X157363Y620753D01*
X157273Y620797D01*
X157182Y620837D01*
X157089Y620873D01*
X156995Y620906D01*
X156899Y620935D01*
X156803Y620960D01*
X156706Y620981D01*
X156607Y620999D01*
X156509Y621012D01*
X156409Y621022D01*
X156310Y621028D01*
X156210Y621030D01*
X97790Y621030D02*
X97690Y621028D01*
X97591Y621022D01*
X97491Y621012D01*
X97393Y620999D01*
X97294Y620981D01*
X97197Y620960D01*
X97101Y620935D01*
X97005Y620906D01*
X96911Y620873D01*
X96818Y620837D01*
X96727Y620797D01*
X96637Y620753D01*
X96549Y620706D01*
X96463Y620656D01*
X96379Y620602D01*
X96297Y620545D01*
X96218Y620485D01*
X96140Y620421D01*
X96066Y620355D01*
X95994Y620286D01*
X95925Y620214D01*
X95859Y620140D01*
X95795Y620062D01*
X95735Y619983D01*
X95678Y619901D01*
X95624Y619817D01*
X95574Y619731D01*
X95527Y619643D01*
X95483Y619553D01*
X95443Y619462D01*
X95407Y619369D01*
X95374Y619275D01*
X95345Y619179D01*
X95320Y619083D01*
X95299Y618986D01*
X95281Y618887D01*
X95268Y618789D01*
X95258Y618689D01*
X95252Y618590D01*
X95250Y618490D01*
X95250Y600710D02*
X95252Y600610D01*
X95258Y600511D01*
X95268Y600411D01*
X95281Y600313D01*
X95299Y600214D01*
X95320Y600117D01*
X95345Y600021D01*
X95374Y599925D01*
X95407Y599831D01*
X95443Y599738D01*
X95483Y599647D01*
X95527Y599557D01*
X95574Y599469D01*
X95624Y599383D01*
X95678Y599299D01*
X95735Y599217D01*
X95795Y599138D01*
X95859Y599060D01*
X95925Y598986D01*
X95994Y598914D01*
X96066Y598845D01*
X96140Y598779D01*
X96218Y598715D01*
X96297Y598655D01*
X96379Y598598D01*
X96463Y598544D01*
X96549Y598494D01*
X96637Y598447D01*
X96727Y598403D01*
X96818Y598363D01*
X96911Y598327D01*
X97005Y598294D01*
X97101Y598265D01*
X97197Y598240D01*
X97294Y598219D01*
X97393Y598201D01*
X97491Y598188D01*
X97591Y598178D01*
X97690Y598172D01*
X97790Y598170D01*
X158750Y600710D02*
X158750Y618490D01*
X156210Y598170D02*
X152400Y598170D01*
X151130Y599440D01*
X152400Y621030D02*
X156210Y621030D01*
X152400Y621030D02*
X151130Y619760D01*
X102870Y599440D02*
X101600Y598170D01*
X102870Y599440D02*
X151130Y599440D01*
X102870Y619760D02*
X101600Y621030D01*
X102870Y619760D02*
X151130Y619760D01*
X101600Y598170D02*
X97790Y598170D01*
X97790Y621030D02*
X101600Y621030D01*
X95250Y618490D02*
X95250Y600710D01*
D15*
X86360Y609600D02*
X69850Y609600D01*
X167640Y609600D02*
X184150Y609600D01*
D16*
X140418Y594995D02*
X140418Y583565D01*
X140418Y594995D02*
X143593Y594995D01*
X143704Y594993D01*
X143814Y594987D01*
X143925Y594978D01*
X144035Y594964D01*
X144144Y594947D01*
X144253Y594926D01*
X144361Y594901D01*
X144468Y594872D01*
X144574Y594840D01*
X144679Y594804D01*
X144782Y594764D01*
X144884Y594721D01*
X144985Y594674D01*
X145084Y594623D01*
X145181Y594570D01*
X145275Y594513D01*
X145368Y594452D01*
X145459Y594389D01*
X145548Y594322D01*
X145634Y594252D01*
X145717Y594179D01*
X145799Y594104D01*
X145877Y594026D01*
X145952Y593944D01*
X146025Y593861D01*
X146095Y593775D01*
X146162Y593686D01*
X146225Y593595D01*
X146286Y593502D01*
X146343Y593407D01*
X146396Y593311D01*
X146447Y593212D01*
X146494Y593111D01*
X146537Y593009D01*
X146577Y592906D01*
X146613Y592801D01*
X146645Y592695D01*
X146674Y592588D01*
X146699Y592480D01*
X146720Y592371D01*
X146737Y592262D01*
X146751Y592152D01*
X146760Y592041D01*
X146766Y591931D01*
X146768Y591820D01*
X146766Y591709D01*
X146760Y591599D01*
X146751Y591488D01*
X146737Y591378D01*
X146720Y591269D01*
X146699Y591160D01*
X146674Y591052D01*
X146645Y590945D01*
X146613Y590839D01*
X146577Y590734D01*
X146537Y590631D01*
X146494Y590529D01*
X146447Y590428D01*
X146396Y590329D01*
X146343Y590233D01*
X146286Y590138D01*
X146225Y590045D01*
X146162Y589954D01*
X146095Y589865D01*
X146025Y589779D01*
X145952Y589696D01*
X145877Y589614D01*
X145799Y589536D01*
X145717Y589461D01*
X145634Y589388D01*
X145548Y589318D01*
X145459Y589251D01*
X145368Y589188D01*
X145275Y589127D01*
X145180Y589070D01*
X145084Y589017D01*
X144985Y588966D01*
X144884Y588919D01*
X144782Y588876D01*
X144679Y588836D01*
X144574Y588800D01*
X144468Y588768D01*
X144361Y588739D01*
X144253Y588714D01*
X144144Y588693D01*
X144035Y588676D01*
X143925Y588662D01*
X143814Y588653D01*
X143704Y588647D01*
X143593Y588645D01*
X140418Y588645D01*
X144228Y588645D02*
X146768Y583565D01*
X151765Y583565D02*
X155575Y583565D01*
X155675Y583567D01*
X155774Y583573D01*
X155874Y583583D01*
X155972Y583596D01*
X156071Y583614D01*
X156168Y583635D01*
X156264Y583660D01*
X156360Y583689D01*
X156454Y583722D01*
X156547Y583758D01*
X156638Y583798D01*
X156728Y583842D01*
X156816Y583889D01*
X156902Y583939D01*
X156986Y583993D01*
X157068Y584050D01*
X157147Y584110D01*
X157225Y584174D01*
X157299Y584240D01*
X157371Y584309D01*
X157440Y584381D01*
X157506Y584455D01*
X157570Y584533D01*
X157630Y584612D01*
X157687Y584694D01*
X157741Y584778D01*
X157791Y584864D01*
X157838Y584952D01*
X157882Y585042D01*
X157922Y585133D01*
X157958Y585226D01*
X157991Y585320D01*
X158020Y585416D01*
X158045Y585512D01*
X158066Y585609D01*
X158084Y585708D01*
X158097Y585806D01*
X158107Y585906D01*
X158113Y586005D01*
X158115Y586105D01*
X158115Y587375D01*
X158113Y587475D01*
X158107Y587574D01*
X158097Y587674D01*
X158084Y587772D01*
X158066Y587871D01*
X158045Y587968D01*
X158020Y588064D01*
X157991Y588160D01*
X157958Y588254D01*
X157922Y588347D01*
X157882Y588438D01*
X157838Y588528D01*
X157791Y588616D01*
X157741Y588702D01*
X157687Y588786D01*
X157630Y588868D01*
X157570Y588947D01*
X157506Y589025D01*
X157440Y589099D01*
X157371Y589171D01*
X157299Y589240D01*
X157225Y589306D01*
X157147Y589370D01*
X157068Y589430D01*
X156986Y589487D01*
X156902Y589541D01*
X156816Y589591D01*
X156728Y589638D01*
X156638Y589682D01*
X156547Y589722D01*
X156454Y589758D01*
X156360Y589791D01*
X156264Y589820D01*
X156168Y589845D01*
X156071Y589866D01*
X155972Y589884D01*
X155874Y589897D01*
X155774Y589907D01*
X155675Y589913D01*
X155575Y589915D01*
X151765Y589915D01*
X151765Y594995D01*
X158115Y594995D01*
D17*
X90932Y609600D03*
X163068Y609600D03*
X65532Y609600D03*
X188468Y609600D03*
D14*
X158750Y562610D02*
X158748Y562510D01*
X158742Y562411D01*
X158732Y562311D01*
X158719Y562213D01*
X158701Y562114D01*
X158680Y562017D01*
X158655Y561921D01*
X158626Y561825D01*
X158593Y561731D01*
X158557Y561638D01*
X158517Y561547D01*
X158473Y561457D01*
X158426Y561369D01*
X158376Y561283D01*
X158322Y561199D01*
X158265Y561117D01*
X158205Y561038D01*
X158141Y560960D01*
X158075Y560886D01*
X158006Y560814D01*
X157934Y560745D01*
X157860Y560679D01*
X157782Y560615D01*
X157703Y560555D01*
X157621Y560498D01*
X157537Y560444D01*
X157451Y560394D01*
X157363Y560347D01*
X157273Y560303D01*
X157182Y560263D01*
X157089Y560227D01*
X156995Y560194D01*
X156899Y560165D01*
X156803Y560140D01*
X156706Y560119D01*
X156607Y560101D01*
X156509Y560088D01*
X156409Y560078D01*
X156310Y560072D01*
X156210Y560070D01*
X158750Y580390D02*
X158748Y580490D01*
X158742Y580589D01*
X158732Y580689D01*
X158719Y580787D01*
X158701Y580886D01*
X158680Y580983D01*
X158655Y581079D01*
X158626Y581175D01*
X158593Y581269D01*
X158557Y581362D01*
X158517Y581453D01*
X158473Y581543D01*
X158426Y581631D01*
X158376Y581717D01*
X158322Y581801D01*
X158265Y581883D01*
X158205Y581962D01*
X158141Y582040D01*
X158075Y582114D01*
X158006Y582186D01*
X157934Y582255D01*
X157860Y582321D01*
X157782Y582385D01*
X157703Y582445D01*
X157621Y582502D01*
X157537Y582556D01*
X157451Y582606D01*
X157363Y582653D01*
X157273Y582697D01*
X157182Y582737D01*
X157089Y582773D01*
X156995Y582806D01*
X156899Y582835D01*
X156803Y582860D01*
X156706Y582881D01*
X156607Y582899D01*
X156509Y582912D01*
X156409Y582922D01*
X156310Y582928D01*
X156210Y582930D01*
X97790Y582930D02*
X97690Y582928D01*
X97591Y582922D01*
X97491Y582912D01*
X97393Y582899D01*
X97294Y582881D01*
X97197Y582860D01*
X97101Y582835D01*
X97005Y582806D01*
X96911Y582773D01*
X96818Y582737D01*
X96727Y582697D01*
X96637Y582653D01*
X96549Y582606D01*
X96463Y582556D01*
X96379Y582502D01*
X96297Y582445D01*
X96218Y582385D01*
X96140Y582321D01*
X96066Y582255D01*
X95994Y582186D01*
X95925Y582114D01*
X95859Y582040D01*
X95795Y581962D01*
X95735Y581883D01*
X95678Y581801D01*
X95624Y581717D01*
X95574Y581631D01*
X95527Y581543D01*
X95483Y581453D01*
X95443Y581362D01*
X95407Y581269D01*
X95374Y581175D01*
X95345Y581079D01*
X95320Y580983D01*
X95299Y580886D01*
X95281Y580787D01*
X95268Y580689D01*
X95258Y580589D01*
X95252Y580490D01*
X95250Y580390D01*
X95250Y562610D02*
X95252Y562510D01*
X95258Y562411D01*
X95268Y562311D01*
X95281Y562213D01*
X95299Y562114D01*
X95320Y562017D01*
X95345Y561921D01*
X95374Y561825D01*
X95407Y561731D01*
X95443Y561638D01*
X95483Y561547D01*
X95527Y561457D01*
X95574Y561369D01*
X95624Y561283D01*
X95678Y561199D01*
X95735Y561117D01*
X95795Y561038D01*
X95859Y560960D01*
X95925Y560886D01*
X95994Y560814D01*
X96066Y560745D01*
X96140Y560679D01*
X96218Y560615D01*
X96297Y560555D01*
X96379Y560498D01*
X96463Y560444D01*
X96549Y560394D01*
X96637Y560347D01*
X96727Y560303D01*
X96818Y560263D01*
X96911Y560227D01*
X97005Y560194D01*
X97101Y560165D01*
X97197Y560140D01*
X97294Y560119D01*
X97393Y560101D01*
X97491Y560088D01*
X97591Y560078D01*
X97690Y560072D01*
X97790Y560070D01*
X158750Y562610D02*
X158750Y580390D01*
X156210Y560070D02*
X152400Y560070D01*
X151130Y561340D01*
X152400Y582930D02*
X156210Y582930D01*
X152400Y582930D02*
X151130Y581660D01*
X102870Y561340D02*
X101600Y560070D01*
X102870Y561340D02*
X151130Y561340D01*
X102870Y581660D02*
X101600Y582930D01*
X102870Y581660D02*
X151130Y581660D01*
X101600Y560070D02*
X97790Y560070D01*
X97790Y582930D02*
X101600Y582930D01*
X95250Y580390D02*
X95250Y562610D01*
D15*
X86360Y571500D02*
X69850Y571500D01*
X167640Y571500D02*
X184150Y571500D01*
D16*
X140418Y556895D02*
X140418Y545465D01*
X140418Y556895D02*
X143593Y556895D01*
X143704Y556893D01*
X143814Y556887D01*
X143925Y556878D01*
X144035Y556864D01*
X144144Y556847D01*
X144253Y556826D01*
X144361Y556801D01*
X144468Y556772D01*
X144574Y556740D01*
X144679Y556704D01*
X144782Y556664D01*
X144884Y556621D01*
X144985Y556574D01*
X145084Y556523D01*
X145181Y556470D01*
X145275Y556413D01*
X145368Y556352D01*
X145459Y556289D01*
X145548Y556222D01*
X145634Y556152D01*
X145717Y556079D01*
X145799Y556004D01*
X145877Y555926D01*
X145952Y555844D01*
X146025Y555761D01*
X146095Y555675D01*
X146162Y555586D01*
X146225Y555495D01*
X146286Y555402D01*
X146343Y555307D01*
X146396Y555211D01*
X146447Y555112D01*
X146494Y555011D01*
X146537Y554909D01*
X146577Y554806D01*
X146613Y554701D01*
X146645Y554595D01*
X146674Y554488D01*
X146699Y554380D01*
X146720Y554271D01*
X146737Y554162D01*
X146751Y554052D01*
X146760Y553941D01*
X146766Y553831D01*
X146768Y553720D01*
X146766Y553609D01*
X146760Y553499D01*
X146751Y553388D01*
X146737Y553278D01*
X146720Y553169D01*
X146699Y553060D01*
X146674Y552952D01*
X146645Y552845D01*
X146613Y552739D01*
X146577Y552634D01*
X146537Y552531D01*
X146494Y552429D01*
X146447Y552328D01*
X146396Y552229D01*
X146343Y552133D01*
X146286Y552038D01*
X146225Y551945D01*
X146162Y551854D01*
X146095Y551765D01*
X146025Y551679D01*
X145952Y551596D01*
X145877Y551514D01*
X145799Y551436D01*
X145717Y551361D01*
X145634Y551288D01*
X145548Y551218D01*
X145459Y551151D01*
X145368Y551088D01*
X145275Y551027D01*
X145180Y550970D01*
X145084Y550917D01*
X144985Y550866D01*
X144884Y550819D01*
X144782Y550776D01*
X144679Y550736D01*
X144574Y550700D01*
X144468Y550668D01*
X144361Y550639D01*
X144253Y550614D01*
X144144Y550593D01*
X144035Y550576D01*
X143925Y550562D01*
X143814Y550553D01*
X143704Y550547D01*
X143593Y550545D01*
X140418Y550545D01*
X144228Y550545D02*
X146768Y545465D01*
X151765Y551815D02*
X155575Y551815D01*
X155675Y551813D01*
X155774Y551807D01*
X155874Y551797D01*
X155972Y551784D01*
X156071Y551766D01*
X156168Y551745D01*
X156264Y551720D01*
X156360Y551691D01*
X156454Y551658D01*
X156547Y551622D01*
X156638Y551582D01*
X156728Y551538D01*
X156816Y551491D01*
X156902Y551441D01*
X156986Y551387D01*
X157068Y551330D01*
X157147Y551270D01*
X157225Y551206D01*
X157299Y551140D01*
X157371Y551071D01*
X157440Y550999D01*
X157506Y550925D01*
X157570Y550847D01*
X157630Y550768D01*
X157687Y550686D01*
X157741Y550602D01*
X157791Y550516D01*
X157838Y550428D01*
X157882Y550338D01*
X157922Y550247D01*
X157958Y550154D01*
X157991Y550060D01*
X158020Y549964D01*
X158045Y549868D01*
X158066Y549771D01*
X158084Y549672D01*
X158097Y549574D01*
X158107Y549474D01*
X158113Y549375D01*
X158115Y549275D01*
X158115Y548640D01*
X158113Y548529D01*
X158107Y548419D01*
X158098Y548308D01*
X158084Y548198D01*
X158067Y548089D01*
X158046Y547980D01*
X158021Y547872D01*
X157992Y547765D01*
X157960Y547659D01*
X157924Y547554D01*
X157884Y547451D01*
X157841Y547349D01*
X157794Y547248D01*
X157743Y547149D01*
X157690Y547053D01*
X157633Y546958D01*
X157572Y546865D01*
X157509Y546774D01*
X157442Y546685D01*
X157372Y546599D01*
X157299Y546516D01*
X157224Y546434D01*
X157146Y546356D01*
X157064Y546281D01*
X156981Y546208D01*
X156895Y546138D01*
X156806Y546071D01*
X156715Y546008D01*
X156622Y545947D01*
X156527Y545890D01*
X156431Y545837D01*
X156332Y545786D01*
X156231Y545739D01*
X156129Y545696D01*
X156026Y545656D01*
X155921Y545620D01*
X155815Y545588D01*
X155708Y545559D01*
X155600Y545534D01*
X155491Y545513D01*
X155382Y545496D01*
X155272Y545482D01*
X155161Y545473D01*
X155051Y545467D01*
X154940Y545465D01*
X154829Y545467D01*
X154719Y545473D01*
X154608Y545482D01*
X154498Y545496D01*
X154389Y545513D01*
X154280Y545534D01*
X154172Y545559D01*
X154065Y545588D01*
X153959Y545620D01*
X153854Y545656D01*
X153751Y545696D01*
X153649Y545739D01*
X153548Y545786D01*
X153449Y545837D01*
X153353Y545890D01*
X153258Y545947D01*
X153165Y546008D01*
X153074Y546071D01*
X152985Y546138D01*
X152899Y546208D01*
X152816Y546281D01*
X152734Y546356D01*
X152656Y546434D01*
X152581Y546516D01*
X152508Y546599D01*
X152438Y546685D01*
X152371Y546774D01*
X152308Y546865D01*
X152247Y546958D01*
X152190Y547053D01*
X152137Y547149D01*
X152086Y547248D01*
X152039Y547349D01*
X151996Y547451D01*
X151956Y547554D01*
X151920Y547659D01*
X151888Y547765D01*
X151859Y547872D01*
X151834Y547980D01*
X151813Y548089D01*
X151796Y548198D01*
X151782Y548308D01*
X151773Y548419D01*
X151767Y548529D01*
X151765Y548640D01*
X151765Y551815D01*
X151767Y551955D01*
X151773Y552095D01*
X151782Y552235D01*
X151796Y552374D01*
X151813Y552513D01*
X151834Y552651D01*
X151859Y552789D01*
X151888Y552926D01*
X151920Y553062D01*
X151957Y553197D01*
X151997Y553331D01*
X152040Y553464D01*
X152088Y553596D01*
X152138Y553727D01*
X152193Y553856D01*
X152251Y553983D01*
X152312Y554109D01*
X152377Y554233D01*
X152446Y554355D01*
X152517Y554475D01*
X152592Y554593D01*
X152670Y554710D01*
X152752Y554824D01*
X152836Y554935D01*
X152924Y555044D01*
X153014Y555151D01*
X153108Y555256D01*
X153204Y555357D01*
X153303Y555456D01*
X153404Y555552D01*
X153509Y555646D01*
X153616Y555736D01*
X153725Y555824D01*
X153836Y555908D01*
X153950Y555990D01*
X154067Y556068D01*
X154185Y556143D01*
X154305Y556214D01*
X154427Y556283D01*
X154551Y556348D01*
X154677Y556409D01*
X154804Y556467D01*
X154933Y556522D01*
X155064Y556572D01*
X155196Y556620D01*
X155329Y556663D01*
X155463Y556703D01*
X155598Y556740D01*
X155734Y556772D01*
X155871Y556801D01*
X156009Y556826D01*
X156147Y556847D01*
X156286Y556864D01*
X156425Y556878D01*
X156565Y556887D01*
X156705Y556893D01*
X156845Y556895D01*
D17*
X90932Y571500D03*
X163068Y571500D03*
X65532Y571500D03*
X188468Y571500D03*
M02*
