G04 EAGLE Gerber X2 export*
%TF.Part,Single*%
%TF.FileFunction,Other,Solder Mask bottom*%
%TF.FilePolarity,Positive*%
%TF.GenerationSoftware,Autodesk,EAGLE,9.1.2*%
%TF.CreationDate,2019-02-28T11:01:59Z*%
G75*
%MOMM*%
%FSLAX34Y34*%
%LPD*%
%AMOC8*
5,1,8,0,0,1.08239X$1,22.5*%
G01*
%ADD10C,0.000000*%
%ADD11R,1.511200X1.511200*%
%ADD12C,1.511200*%
%ADD13C,1.711200*%
%ADD14P,1.649562X8X202.500000*%
%ADD15C,0.959600*%


D10*
X-13970Y312420D02*
X528830Y312420D01*
X528830Y786030D01*
X-13970Y786030D01*
X-13970Y312420D01*
D11*
X190500Y355600D03*
D12*
X190500Y381000D03*
X190500Y406400D03*
X190500Y431800D03*
X190500Y457200D03*
X190500Y482600D03*
X190500Y508000D03*
X190500Y533400D03*
X114300Y533400D03*
X114300Y508000D03*
X114300Y482600D03*
X114300Y457200D03*
X114300Y431800D03*
X114300Y406400D03*
X114300Y381000D03*
X114300Y355600D03*
D13*
X32940Y508000D02*
X17860Y508000D01*
X17860Y482600D02*
X32940Y482600D01*
X32940Y457200D02*
X17860Y457200D01*
X17860Y431800D02*
X32940Y431800D01*
X32940Y406400D02*
X17860Y406400D01*
X17860Y381000D02*
X32940Y381000D01*
X32940Y355600D02*
X17860Y355600D01*
X17860Y330200D02*
X32940Y330200D01*
X487760Y673100D02*
X502840Y673100D01*
X502840Y647700D02*
X487760Y647700D01*
X487760Y622300D02*
X502840Y622300D01*
X502840Y596900D02*
X487760Y596900D01*
X487760Y571500D02*
X502840Y571500D01*
X502840Y546100D02*
X487760Y546100D01*
D14*
X203200Y762000D03*
X50800Y762000D03*
X203200Y723900D03*
X50800Y723900D03*
X203200Y685800D03*
X50800Y685800D03*
X203200Y647700D03*
X50800Y647700D03*
X203200Y609600D03*
X50800Y609600D03*
X203200Y571500D03*
X50800Y571500D03*
D15*
X76200Y330200D03*
X215900Y508000D03*
X292100Y444500D03*
X292100Y495300D03*
X292100Y596900D03*
X292100Y647700D03*
X292100Y546100D03*
X292100Y393700D03*
X76200Y520700D03*
X76200Y381000D03*
X292100Y762000D03*
X368300Y685800D03*
X317500Y749300D03*
X368300Y647700D03*
X342900Y736600D03*
X368300Y596900D03*
X368300Y723900D03*
X368300Y547370D03*
X393700Y711200D03*
X368300Y495300D03*
X419100Y698500D03*
X368300Y444500D03*
M02*
